<?xml version="1.0" encoding="UTF-8"?>
<svg id="Layer_1" data-name="Layer 1" xmlns="http://www.w3.org/2000/svg" viewBox="0 0 211 60">
  <path d="M181.97,8.94l.03,4.42c-3.38,0-6.8.06-10.2,0-29.88-.47-59.81-1.32-89.69-1.89l-42.52-.81,142.38-1.73Z"/>
  <path d="M55.99,35.03c-.07.85-.38,2.27-.64,3.11-2.07,6.7-10.79,6.44-16.21,4.49l1.27-4.66c2.62,1.52,7.61,2.49,9.3-.78.58-1.12.24-2.11.66-3.21-1.24.52-1.85,1.5-3.27,1.76-11.26,2.12-12.55-15.11-3.89-17.94,2.54-.83,6-.59,7.51,1.89l.35-1.88h4.8l.3.35c0,.1-.18.18-.18.23,0,5.24.43,11.53,0,16.63ZM49.11,22.57c-1.96-1.91-4.93-.14-5.44,2.25-.18.86-.2,2.54-.1,3.41.43,3.84,5.62,4.76,6.46.83.35-1.65.36-5.25-.91-6.49Z"/>
  <path d="M66.06,12.89v8.9c3.61-3.56,10.35-2.7,11.42,2.75.07.37.29,2.02.29,2.29v8.9l-.35.35h-5.5v-9.49c0-.09-.48-1.61-.54-1.69-.66-.96-2.55-1.26-3.62-.83-.36.15-1.7,1.52-1.7,1.81v10.19h-5.86V13.24l.35-.35h5.5Z"/>
  <path d="M88.31,12.89v3.75h3.98v4.45h-3.98v8.55c0,1.44,2.45,2.26,3.63,1.53l.32.34-.07,4.34c-3.28,1.17-7.79.92-9.08-2.88-.13-.37-.66-2.39-.66-2.62v-9.25h-2.34v-4.45h2.34v-3.4l.38-.33c1.79.4,3.62-.24,5.48-.02Z"/>
  <polygon points="24.13 36.08 18.28 36.08 18.28 7.62 18.63 7.27 23.78 7.27 24.13 7.62 24.13 36.08"/>
  <path d="M34.44,13.59v22.49h-5.86l-.19-22.11.42-.26c1.75,1.49,3.84,1.01,5.63-.11Z"/>
  <path d="M128.28,20.71c4.84,3.59,3.9,12.46-1.63,14.95-8.69,3.91-15.52-5.74-10.57-13.15,2.49-3.73,8.69-4.4,12.2-1.8ZM121.98,20.68c-7.97,1.05-7.14,15.24,1.79,14.2,8.16-.95,7.2-15.38-1.79-14.2Z"/>
  <path d="M182.7,27.65h-12.77c-.71,0,.16,3.06.38,3.6,1.25,3.05,4.5,3.93,7.55,3.63,1.09-.1,2-.58,2.96-.81.82-.2.98.91.93,1.53-7.1,2.62-14.9-.16-14.04-8.77,1.05-10.6,16.4-10.25,14.99.82ZM180.83,26.24c-.1-7.73-10.39-7.19-11.01,0h11.01Z"/>
  <path d="M97.91,36.08l-1.49-.03-.38-.55.22-22.5,1.66-.1v10.07c2.76-3.77,10.06-4.13,11.89.64.1.27.52,1.67.52,1.82v10.66h-1.87v-10.42c0-.12-.49-1.51-.61-1.73-1.88-3.63-7.59-2.88-9.28.52-.11.23-.65,1.81-.65,1.92v9.72Z"/>
  <path d="M137.5,19.22v11.36c0,.09.49,1.54.58,1.76,1.54,3.44,6.05,3.15,8.32.58.28-.31,1.17-1.8,1.17-2.11v-11.59c.71.07,1.61-.26,2.11.35v16.51l-1.77-.22-.22-2.36c-2.46,3.65-9.25,4.33-11.24,0-.14-.3-.82-2.3-.82-2.46v-11.83h1.87Z"/>
  <path d="M163.49,21.79c-1.84-1.29-6.19-1.81-6.91.93-1.18,4.46,7.18,3.39,8.03,7.91.93,4.95-4.21,6.53-8.19,5.61-1.7-.39-2.89-.61-1.82-2.51,2.12,1.54,7.97,1.88,8.21-1.53.31-4.31-7.45-3.73-8.16-7.55-1-5.4,5.77-6.58,9.44-4.52l-.6,1.65Z"/>
  <path d="M75.43,52.48v-12.18c4.48-1.23,11.28,1.24,5.62,5.85,3.2.28,3.55,4.73.64,5.91-.18.07-1.38.42-1.46.42h-4.8ZM76.6,41.82c-.1,1.16.08,2.45,0,3.63,1.72.19,5.37.26,5.36-2.23s-3.22-2.35-4.98-2.19c-.29.08-.35.54-.38.78ZM76.6,46.97c-.11,1.32,0,2.86,0,4.22,0,1.03,5.88,1.01,5.88-2.11,0-2.74-3.93-2.8-5.88-2.69.18.24.02.41,0,.58Z"/>
  <path d="M60.44,40.3c1.92-.35,6.81-.61,7.44,1.81.29,1.14-.05,2.41-.89,3.21-.4.38-1.1.15-.92.83,3.12.51,3.35,4.49.6,5.87-.2.1-1.06.46-1.18.46h-5.04v-12.18ZM61.61,41v4.45h3.4c.23,0,1.39-.92,1.55-1.26,1.35-3.06-2.9-3.44-4.94-3.19ZM61.61,46.39v5.04c2.08,1.22,7.26-.51,5.39-3.52-1.05-1.7-3.64-1.54-5.39-1.52Z"/>
  <path d="M148.74,40.3c3.68-.64,10.05-.21,7.34,5.09l-1.95,1.23c2.37.57,2.13,3.99,3.04,5.86l-1.29-.23c-.84-3.73-1.49-5.97-5.97-5.39v5.62h-1.17v-12.18ZM149.91,46.15c2.29.56,7.27-.85,5.26-3.97-.87-1.35-3.98-1.57-5.26-.83v4.8Z"/>
  <path d="M123.44,45.68c.08.12.3-.23.35-.23h7.14v-5.04c0-.44,1.17-.44,1.17,0v12.06h-1.17v-6.09h-7.5v5.74l-1.17.35v-12.06l.35-.27.82.27v5.27Z"/>
  <path d="M172.87,45.45h7.5v-5.15l1.17-.23v12.41h-1.17v-6.09h-7.38l-.33.37v5.62s-.84.1-.84.1c-.53-.31-.12-.49-.12-.58v-11.83l.96.11c.14.09.21.76.21.95v4.33Z"/>
  <path d="M144.29,40.06l.95.1c.17.12.18.3.22.48.23,1.26.13,5.84,0,7.27-.25,2.93-1.81,4.66-4.82,4.8-6.95.3-5.03-7.79-5.21-12.27,1.89-1.34,1.13,1.04,1.11,2.07-.09,3.67-.71,10.64,5.12,9.1,1.27-.33,2.62-1.94,2.62-3.24v-8.32Z"/>
  <path d="M102.83,40.3v.7h-6.09v4.33l.35.35h5.5v.7h-5.5l-.35.35v4.8h6.21l.35.35-.35.58h-7.03l-.35-.35v-11.71l.35-.3c.1,0,.18.18.23.18h6.68Z"/>
  <path d="M29.12,8.04c1.02-.94,3.57-1,4.6.06,2.45,2.53-.89,6.6-4.08,4.55-1.42-.91-1.72-3.51-.51-4.62Z"/>
  <path d="M169.35,40.53l-.62.89c-3.28-1.12-7.77-.34-8.74,3.46-1.03,4.01,1.76,6.89,5.72,6.92.93,0,2.32-.52,3.07-.48.31.02.63.25.56.57-5.51,2.58-12.67-.97-10.31-7.73,1.46-4.18,6.57-4.73,10.31-3.62Z"/>
  <path d="M114.95,40.12c.77-.1,4.99-.22,4.97.76,0,.05-.47.52-.62.55-.3.06-.73-.38-1.15-.42-3.13-.3-6.52.27-7.53,3.69-1.16,3.91,1.47,6.94,5.43,7.09.96.04,3.04-.59,3.49-.46.2.06.44.33.38.56-.13.53-3.22.84-3.86.84-8.92-.01-9.06-11.53-1.11-12.6Z"/>
  <polygon points="87.37 40.06 87.37 51.54 93.7 51.54 93.7 52.48 86.2 52.48 86.2 40.06 87.37 40.06"/>
  <path d="M70.98,40.41c.11-.37.81-.41,1.17-.35l.15,12.06-.5.37-.82-.37v-11.71Z"/>
</svg>