<?xml version="1.0" encoding="UTF-8"?>
<svg id="Layer_1" data-name="Layer 1" xmlns="http://www.w3.org/2000/svg" viewBox="0 0 250 250">
  <defs>
    <style>
      .cls-1 {
        fill: #fff;
      }
    </style>
  </defs>
  <path class="cls-1" d="M233.4,96.96l.04,5.89c-4.5,0-9.05.08-13.58.01-39.77-.63-79.61-1.76-119.39-2.52l-56.61-1.08,189.54-2.3Z"/>
  <path class="cls-1" d="M65.7,131.69c-.1,1.14-.5,3.02-.85,4.14-2.75,8.92-14.36,8.57-21.58,5.97l1.69-6.2c3.49,2.02,10.13,3.32,12.38-1.04.77-1.49.32-2.81.87-4.27-1.65.69-2.46,1.99-4.35,2.35-14.99,2.83-16.7-20.11-5.17-23.88,3.38-1.11,7.99-.78,9.99,2.51l.47-2.5h6.39l.4.47c0,.13-.24.23-.24.31,0,6.97.57,15.35,0,22.14ZM56.55,115.11c-2.61-2.55-6.57-.19-7.24,3-.24,1.14-.27,3.38-.14,4.54.58,5.12,7.48,6.34,8.59,1.11.47-2.19.48-6.99-1.21-8.64Z"/>
  <path class="cls-1" d="M79.1,102.23v11.85c4.81-4.74,13.78-3.6,15.2,3.66.1.49.39,2.69.39,3.04v11.85l-.47.47h-7.33v-12.63c0-.12-.64-2.14-.72-2.25-.87-1.28-3.39-1.68-4.82-1.1-.48.19-2.26,2.02-2.26,2.41v13.56h-7.8v-30.4l.47-.47h7.33Z"/>
  <path class="cls-1" d="M108.72,102.23v4.99h5.3v5.92h-5.3v11.38c0,1.92,3.26,3,4.83,2.03l.43.45-.09,5.78c-4.37,1.56-10.37,1.22-12.08-3.84-.17-.5-.87-3.18-.87-3.49v-12.32h-3.12v-5.92h3.12v-4.52l.51-.45c2.39.53,4.82-.32,7.29-.02Z"/>
  <polygon class="cls-1" points="23.29 133.09 15.5 133.09 15.5 95.21 15.96 94.74 22.82 94.74 23.29 95.21 23.29 133.09"/>
  <path class="cls-1" d="M37.01,103.16v29.93h-7.8l-.26-29.43.56-.35c2.32,1.98,5.11,1.34,7.49-.15Z"/>
  <path class="cls-1" d="M161.93,112.63c6.45,4.78,5.19,16.59-2.16,19.9-11.57,5.2-20.67-7.64-14.07-17.5,3.32-4.96,11.57-5.85,16.23-2.4ZM153.55,112.6c-10.61,1.4-9.51,20.28,2.38,18.9,10.86-1.26,9.58-20.48-2.38-18.9Z"/>
  <path class="cls-1" d="M234.38,121.87h-16.99c-.95,0,.22,4.08.51,4.79,1.66,4.06,5.99,5.23,10.05,4.84,1.44-.14,2.67-.77,3.94-1.08,1.09-.27,1.31,1.21,1.23,2.04-9.45,3.48-19.83-.22-18.69-11.68,1.4-14.11,21.84-13.64,19.95,1.09ZM231.89,120c-.13-10.29-13.83-9.57-14.65,0h14.65Z"/>
  <path class="cls-1" d="M121.51,133.09l-1.98-.04-.51-.74.29-29.95,2.2-.14v13.41c3.68-5.02,13.39-5.49,15.83.85.14.36.69,2.22.69,2.43v14.19h-2.49v-13.88c0-.16-.66-2.01-.81-2.31-2.5-4.84-10.1-3.83-12.35.69-.15.3-.87,2.4-.87,2.56v12.94Z"/>
  <path class="cls-1" d="M174.2,110.64v15.12c0,.12.65,2.05.78,2.34,2.06,4.57,8.06,4.19,11.07.78.37-.42,1.56-2.39,1.56-2.8v-15.43c.94.09,2.14-.35,2.81.47v21.98l-2.36-.29-.29-3.14c-3.27,4.86-12.31,5.77-14.97,0-.18-.4-1.09-3.06-1.09-3.27v-15.75h2.49Z"/>
  <path class="cls-1" d="M208.81,114.07c-2.45-1.71-8.24-2.41-9.2,1.24-1.58,5.93,9.56,4.51,10.69,10.53,1.24,6.59-5.61,8.7-10.9,7.47-2.26-.52-3.84-.81-2.43-3.34,2.82,2.05,10.6,2.5,10.93-2.03.41-5.74-9.92-4.96-10.86-10.05-1.33-7.19,7.69-8.76,12.57-6.02l-.8,2.19Z"/>
  <path class="cls-1" d="M91.58,154.92v-16.21c5.96-1.64,15.01,1.66,7.48,7.79,4.25.38,4.73,6.29.85,7.87-.24.1-1.83.55-1.94.55h-6.39ZM93.13,140.73c-.14,1.55.1,3.26,0,4.83,2.29.25,7.15.34,7.13-2.96s-4.29-3.12-6.63-2.91c-.38.11-.47.72-.5,1.04ZM93.13,147.59c-.14,1.76,0,3.81,0,5.61,0,1.36,7.82,1.34,7.82-2.81,0-3.64-5.23-3.73-7.83-3.58.24.31.02.54,0,.78Z"/>
  <path class="cls-1" d="M71.62,138.71c2.56-.47,9.07-.82,9.9,2.41.39,1.51-.06,3.21-1.19,4.28-.54.51-1.46.2-1.23,1.1,4.16.68,4.45,5.98.79,7.81-.27.14-1.41.61-1.57.61h-6.7v-16.21ZM73.18,139.64v5.92h4.52c.31,0,1.86-1.23,2.06-1.68,1.8-4.07-3.86-4.58-6.58-4.24ZM73.18,146.81v6.7c2.77,1.63,9.66-.67,7.18-4.69-1.4-2.26-4.85-2.04-7.18-2.02Z"/>
  <path class="cls-1" d="M189.17,138.71c4.89-.86,13.38-.28,9.77,6.78l-2.6,1.64c3.16.77,2.84,5.32,4.05,7.8l-1.72-.3c-1.12-4.97-1.99-7.95-7.95-7.18v7.48h-1.56v-16.21ZM190.73,146.5c3.05.75,9.68-1.13,7-5.29-1.16-1.8-5.3-2.09-7-1.1v6.39Z"/>
  <path class="cls-1" d="M155.5,145.88c.11.16.4-.31.47-.31h9.51v-6.7c0-.59,1.56-.59,1.56,0v16.06h-1.56v-8.11h-9.98v7.64l-1.56.47v-16.06l.47-.37,1.09.37v7.02Z"/>
  <path class="cls-1" d="M221.29,145.57h9.98v-6.86l1.56-.31v16.53h-1.56v-8.11h-9.82l-.43.49v7.48s-1.12.14-1.12.14c-.71-.41-.16-.65-.16-.78v-15.75l1.27.14c.19.12.28,1.01.28,1.26v5.77Z"/>
  <path class="cls-1" d="M183.25,138.39l1.27.14c.23.16.25.4.29.64.31,1.67.18,7.77.01,9.68-.34,3.9-2.41,6.21-6.42,6.38-9.25.4-6.69-10.37-6.93-16.34,2.52-1.79,1.51,1.39,1.47,2.76-.12,4.88-.94,14.16,6.82,12.11,1.69-.44,3.49-2.58,3.49-4.31v-11.07Z"/>
  <path class="cls-1" d="M128.06,138.71v.94h-8.11v5.77l.47.47h7.33v.94h-7.33l-.47.47v6.39h8.26l.47.47-.47.77h-9.35l-.47-.47v-15.59l.47-.4c.13,0,.23.24.31.24h8.89Z"/>
  <path class="cls-1" d="M29.93,95.77c1.36-1.25,4.75-1.33,6.12.09,3.26,3.36-1.19,8.79-5.44,6.06-1.89-1.21-2.29-4.67-.69-6.15Z"/>
  <path class="cls-1" d="M216.61,139.02l-.82,1.18c-4.37-1.5-10.34-.45-11.63,4.6-1.37,5.34,2.34,9.17,7.62,9.21,1.24,0,3.09-.69,4.09-.63.41.02.84.33.74.76-7.33,3.43-16.87-1.29-13.73-10.3,1.94-5.56,8.75-6.29,13.73-4.82Z"/>
  <path class="cls-1" d="M144.2,138.47c1.02-.14,6.64-.3,6.62,1.01,0,.07-.62.69-.82.73-.4.08-.98-.51-1.53-.56-4.17-.4-8.68.36-10.03,4.91-1.54,5.2,1.96,9.24,7.23,9.44,1.28.05,4.05-.79,4.64-.61.27.08.58.43.51.75-.17.71-4.29,1.12-5.14,1.12-11.88-.02-12.06-15.35-1.48-16.78Z"/>
  <polygon class="cls-1" points="107.48 138.39 107.48 153.67 115.9 153.67 115.9 154.92 105.92 154.92 105.92 138.39 107.48 138.39"/>
  <path class="cls-1" d="M85.65,138.86c.15-.49,1.08-.55,1.55-.46l.2,16.05-.66.49-1.09-.49v-15.59Z"/>
</svg>