<?xml version="1.0" encoding="UTF-8"?>
<svg id="Layer_1" data-name="Layer 1" xmlns="http://www.w3.org/2000/svg" viewBox="0 0 211 60">
  <defs>
    <style>
      .cls-1 {
        fill: #fff;
      }

      .cls-2 {
        fill: #eee;
      }
    </style>
  </defs>
  <path class="cls-1" d="M175.72,33.05c1.38.23,1.57,2.4.14,2.7,1.02.55.69,1.93,1.04,2.89h-.84c-.45-1.55.05-2.92-2.19-2.56v2.56h-.76v-5.59c.79.09,1.85-.12,2.61,0ZM173.88,35.42h1.37c.89,0,.96-1.7.09-1.7h-1.47v1.7Z"/>
  <path class="cls-1" d="M165.16,14.68l-10.99,12.53,11.18,12.56h-11.75s-.01-.15-.09-.24c-1.38-1.41-2.61-2.95-3.93-4.41-.2-.22-1.37-1.55-1.51-1.51l-5.4,6.15h-11.32l11.18-12.54-11.09-12.54h11.61l5.58,6.05,5.41-6.05h11.13Z"/>
  <path class="cls-1" d="M119.1,48.58h-1.33c-.42-1.81-2.19-2.53-3.92-2.36-4.37.43-5.12,6.72-3.36,9.86,1.65,2.93,4.59,3.09,7.56,2.24v-4.73h-3.51v-.95h4.74v6.3c-3.44,1.39-7.84,1.33-9.93-2.2-1.69-2.85-1.47-8.01,1.16-10.26s7.85-1.73,8.58,2.09Z"/>
  <path class="cls-1" d="M167.15,45.45h1.14s.09,14.11.09,14.11h-1.14s-.1-1.42-.1-1.42c-.21.14-.35.48-.53.65-.91.88-1.98,1.06-3.22.96-4.73-.38-5.05-8.77-.89-10.08,1.77-.56,3.53-.15,4.64,1.37v-5.59ZM163.81,50.4c-4.03.38-3.78,7.85-.38,8.38,2.48.39,3.55-1.29,3.72-3.53s-.52-5.11-3.34-4.85Z"/>
  <path class="cls-1" d="M131.21,49.46c7.11-.66,6.71,12.06-.93,10.15-4.53-1.13-4.46-9.65.93-10.15ZM131.4,50.31c-4.11.29-4.07,7.81-.54,8.53,5.41,1.1,5.6-8.88.54-8.53Z"/>
  <path class="cls-1" d="M157.2,59.56h-1.14v-6.58c0-.18-.24-1.07-.33-1.28-.72-1.65-3.21-1.69-4.31-.42-.5.58-.95,1.99-.95,2.74v5.54h-1.14v-9.85h1.14v1.42l.62-.76c1.54-1.38,4.83-1.35,5.74.71.1.24.38,1.11.38,1.33v7.15Z"/>
  <path class="cls-1" d="M139.85,49.71v6.58c0,.37.36,1.37.58,1.69.71,1.01,2.55,1.06,3.52.43s1.48-2.16,1.48-3.25v-5.44h1.14v9.85h-1.14v-1.42c-1.02,1.43-2.48,1.82-4.19,1.59-1.35-.18-2.54-1.49-2.54-2.86v-7.15h1.14Z"/>
  <path class="cls-1" d="M174.14,31.28c7.1-.9,7.3,9.91.17,9.25-5.38-.5-5.48-8.58-.17-9.25ZM174.33,31.94c-4.82.58-4.32,8.48,1.1,7.91,4.85-.51,4.38-8.57-1.1-7.91Z"/>
  <path class="cls-1" d="M121.94,50.04c0-.07-.15-.19-.09-.33h1.12s.16,1.32.16,1.32c.41-.63.83-1.11,1.57-1.37.31-.11,1.67-.45,1.79-.08v1.08c-1.34-.34-2.54.22-3.06,1.52-.11.28-.33,1-.33,1.28v6.11h-1.14v-9.51Z"/>
  <path class="cls-2" d="M99.96.2v16.19c-.31.02-.4-.36-.57-.52-5.62-5.3-14.77-2.24-18.21,4.05-.5.91-.71,1.79-1.11,2.68-.05.11.05.17-.2.13-1.32-4.77-5.01-8.2-9.86-9.23-5.15-1.09-11.12.13-14.69,4.17-.6.67-1.05,1.46-1.61,2.13v-5.11h-11.75v-5.68h12.89V.2h-23.41v39.57h10.52v-16.66h10.52c-1.4,5.5.19,11.41,4.69,14.96,3.97,3.12,9.72,3.76,14.47,2.25,3.89-1.24,6.82-4.33,8.22-8.11h-8.96c-1.16,1.92-2.98,2.36-5.12,2.18-2.58-.22-4.84-2.81-4.69-5.4h18.38c.38,3.59,2.24,7.21,5.07,9.46,3.95,3.15,9.98,4.02,13.93.38.54-.5.93-1.12,1.47-1.61v2.56h8.29V.2h-8.29ZM61.39,23.3c.92-5.5,9.21-5.68,9.95,0h-9.95ZM93.3,33.69c-6.26-1.24-5.83-12.65.28-13.39,8.38-1.01,8.16,15.07-.28,13.39Z"/>
  <polygon class="cls-1" points="131.23 9 131.23 .2 108.25 .2 108.25 39.77 131.23 39.77 131.23 30.97 118.53 30.97 118.53 23.11 131.23 23.11 131.23 14.68 118.53 14.68 118.53 9 131.23 9"/>
</svg>