<?xml version="1.0" encoding="UTF-8"?>
<svg id="Layer_1" data-name="Layer 1" xmlns="http://www.w3.org/2000/svg" viewBox="0 0 250 250">
  <defs>
    <style>
      .cls-1 {
        fill: #fff;
      }

      .cls-2 {
        fill: #eee;
      }
    </style>
  </defs>
  <path class="cls-1" d="M243.53,130.15c2.34.39,2.65,4.04.24,4.55,1.72.93,1.17,3.25,1.76,4.87l-1.42-.02c-.76-2.6.08-4.91-3.7-4.29v4.31h-1.28v-9.43c1.33.16,3.13-.21,4.4,0ZM240.41,134.14h2.32c1.5,0,1.62-2.88.16-2.88h-2.48v2.88Z"/>
  <path class="cls-1" d="M225.69,99.15l-18.54,21.15,18.86,21.2h-19.83s-.02-.26-.15-.4c-2.33-2.38-4.4-4.98-6.64-7.44-.34-.37-2.32-2.61-2.56-2.55l-9.12,10.39h-19.11l18.87-21.17-18.71-21.17h19.59l9.42,10.22,9.14-10.22h18.79Z"/>
  <path class="cls-1" d="M147.96,156.36h-2.24c-.71-3.06-3.69-4.26-6.62-3.98-7.38.73-8.65,11.34-5.67,16.65,2.78,4.95,7.75,5.22,12.76,3.79v-7.99h-5.92v-1.6h8v10.63c-5.8,2.35-13.24,2.25-16.76-3.71-2.85-4.81-2.47-13.51,1.96-17.31s13.24-2.92,14.48,3.52Z"/>
  <path class="cls-1" d="M229.05,151.08h1.92s.16,23.81.16,23.81h-1.92s-.16-2.4-.16-2.4c-.35.24-.59.81-.89,1.1-1.53,1.48-3.34,1.79-5.43,1.62-7.98-.64-8.52-14.81-1.51-17.02,2.99-.94,5.96-.25,7.83,2.31v-9.43ZM223.42,159.44c-6.8.64-6.38,13.25-.65,14.14,4.19.65,6-2.18,6.28-5.96.28-3.8-.87-8.63-5.63-8.18Z"/>
  <path class="cls-1" d="M168.4,157.84c12-1.11,11.32,20.35-1.57,17.13-7.65-1.91-7.52-16.29,1.57-17.13ZM168.72,159.28c-6.94.48-6.88,13.18-.9,14.39,9.13,1.85,9.44-14.99.9-14.39Z"/>
  <path class="cls-1" d="M212.26,174.89h-1.92v-11.11c0-.31-.41-1.81-.56-2.16-1.22-2.78-5.42-2.86-7.27-.72-.85.99-1.6,3.36-1.6,4.63v9.35h-1.92v-16.62h1.92v2.4l1.04-1.28c2.59-2.33,8.15-2.28,9.68,1.19.18.4.64,1.88.64,2.24v12.06Z"/>
  <path class="cls-1" d="M182.99,158.27v11.11c0,.63.61,2.31.99,2.85,1.19,1.71,4.3,1.8,5.94.72,1.6-1.05,2.51-3.65,2.51-5.49v-9.19h1.92v16.62h-1.92v-2.4c-1.72,2.42-4.18,3.07-7.08,2.68-2.27-.31-4.28-2.52-4.28-4.83v-12.06h1.92Z"/>
  <path class="cls-1" d="M240.85,127.15c11.99-1.51,12.32,16.73.28,15.62-9.08-.84-9.24-14.49-.28-15.62ZM241.17,128.28c-8.14.98-7.29,14.31,1.85,13.36,8.19-.85,7.39-14.47-1.85-13.36Z"/>
  <path class="cls-1" d="M152.75,158.83c-.01-.11-.25-.33-.16-.56l1.9.02.26,2.21c.7-1.06,1.41-1.87,2.64-2.31.52-.19,2.81-.75,3.01-.14l.02,1.81c-2.29-.58-4.31.37-5.19,2.56-.19.48-.56,1.7-.56,2.15v10.31h-1.92v-16.06Z"/>
  <path class="cls-2" d="M115.65,74.7v27.33c-.52.04-.68-.62-.96-.88-9.49-8.94-24.92-3.78-30.74,6.84-.84,1.53-1.2,3.02-1.88,4.52-.09.19.08.29-.33.22-2.24-8.06-8.45-13.84-16.64-15.58-8.7-1.85-18.77.22-24.79,7.04-1,1.14-1.76,2.47-2.72,3.59v-8.63h-19.83v-9.59h21.75v-14.86H0v66.8h17.75v-28.13h17.75c-2.36,9.28.32,19.26,7.92,25.24,6.69,5.26,16.41,6.35,24.42,3.79,6.56-2.09,11.51-7.31,13.88-13.7h-15.12c-1.95,3.25-5.03,3.99-8.64,3.68-4.35-.37-8.17-4.75-7.91-9.11h31.03c.65,6.07,3.78,12.16,8.56,15.98,6.67,5.32,16.85,6.78,23.51.65.92-.85,1.56-1.89,2.47-2.72v4.31h14v-66.8h-14ZM50.54,113.69c1.55-9.29,15.54-9.59,16.8,0h-16.8ZM104.41,131.22c-10.56-2.1-9.85-21.35.48-22.6,14.14-1.71,13.77,25.44-.48,22.6Z"/>
  <polygon class="cls-1" points="168.43 89.56 168.43 74.7 129.64 74.7 129.64 141.49 168.43 141.49 168.43 126.63 147 126.63 147 113.37 168.43 113.37 168.43 99.15 147 99.15 147 89.56 168.43 89.56"/>
</svg>