<?xml version="1.0" encoding="UTF-8"?>
<svg id="Layer_1" data-name="Layer 1" xmlns="http://www.w3.org/2000/svg" viewBox="0 0 250 250">
  <defs>
    <style>
      .cls-1 {
        fill: none;
      }

      .cls-2 {
        fill: #272727;
      }
    </style>
  </defs>
  <path d="M241.01,130.04c2.29.38,2.6,3.96.24,4.46,1.68.91,1.14,3.18,1.72,4.77l-1.39-.02c-.75-2.55.08-4.81-3.62-4.2v4.22h-1.25v-9.23c1.31.15,3.06-.21,4.31,0ZM237.96,133.95h2.27c1.47,0,1.59-2.82.16-2.82h-2.43v2.82Z"/>
  <g>
    <path class="cls-2" d="M223.55,99.7l-18.15,20.7,18.46,20.75h-19.41s-.02-.26-.15-.39c-2.28-2.33-4.31-4.88-6.5-7.28-.33-.36-2.27-2.56-2.5-2.5l-8.93,10.17h-18.71l18.47-20.72-18.31-20.72h19.18l9.22,10,8.95-10h18.4Z"/>
    <path d="M147.47,155.69h-2.19c-.7-2.99-3.61-4.17-6.48-3.89-7.22.71-8.47,11.1-5.55,16.29,2.72,4.85,7.58,5.11,12.49,3.71v-7.82h-5.79v-1.56h7.83v10.4c-5.68,2.3-12.96,2.2-16.41-3.63-2.79-4.71-2.42-13.23,1.92-16.94,4.3-3.68,12.96-2.86,14.17,3.44Z"/>
    <path d="M226.84,150.53h1.88s.16,23.31.16,23.31h-1.88s-.16-2.35-.16-2.35c-.34.23-.58.79-.88,1.08-1.5,1.45-3.27,1.75-5.31,1.59-7.81-.63-8.33-14.49-1.47-16.66,2.93-.92,5.83-.25,7.66,2.26v-9.23ZM221.33,158.7c-6.66.62-6.24,12.97-.63,13.84,4.1.64,5.87-2.13,6.14-5.83s-.85-8.45-5.51-8.01Z"/>
    <path d="M167.48,157.14c11.75-1.09,11.08,19.92-1.53,16.77-7.49-1.87-7.36-15.95,1.53-16.77ZM167.79,158.55c-6.8.47-6.73,12.9-.89,14.09,8.94,1.81,9.24-14.67.89-14.09Z"/>
    <path d="M210.4,173.83h-1.88v-10.87c0-.3-.4-1.77-.55-2.11-1.19-2.72-5.31-2.8-7.12-.7-.83.97-1.57,3.28-1.57,4.53v9.15h-1.88v-16.27h1.88v2.35l1.02-1.25c2.54-2.28,7.97-2.23,9.47,1.17.17.39.62,1.84.62,2.19v11.81Z"/>
    <path d="M181.75,157.57v10.87c0,.61.59,2.26.97,2.79,1.17,1.67,4.2,1.76,5.82.7s2.45-3.57,2.45-5.37v-8.99h1.88v16.27h-1.88v-2.35c-1.68,2.37-4.1,3-6.93,2.62-2.23-.3-4.19-2.47-4.19-4.73v-11.81h1.88Z"/>
    <path d="M238.39,127.11c11.73-1.48,12.06,16.38.28,15.29-8.89-.82-9.05-14.18-.28-15.29ZM238.71,128.21c-7.97.96-7.14,14.01,1.82,13.08,8.01-.84,7.23-14.16-1.82-13.08Z"/>
    <path d="M152.17,158.11c-.01-.11-.25-.32-.16-.55l1.86.02.26,2.17c.69-1.04,1.38-1.83,2.59-2.26.51-.19,2.75-.74,2.95-.14l.02,1.78c-2.24-.57-4.21.36-5.08,2.51-.19.47-.55,1.66-.55,2.11v10.09h-1.88v-15.72Z"/>
    <path class="cls-1" d="M52.13,113.93h16.44c-1.23-9.38-14.92-9.09-16.44,0Z"/>
    <path class="cls-1" d="M105.32,108.97c-10.11,1.22-10.81,20.07-.47,22.12,13.95,2.77,14.31-23.8.47-22.12Z"/>
    <path d="M115.84,75.77v26.74c-.51.04-.67-.6-.94-.86-9.29-8.75-24.39-3.7-30.08,6.7-.82,1.5-1.17,2.96-1.84,4.42-.08.18.07.28-.33.22-2.19-7.89-8.27-13.55-16.28-15.25-8.51-1.81-18.37.22-24.26,6.89-.98,1.11-1.73,2.41-2.67,3.52v-8.45h-19.41v-9.38h21.29v-14.55H2.65v65.38h17.38v-27.53h17.38c-2.31,9.08.31,18.86,7.75,24.71,6.55,5.15,16.06,6.22,23.9,3.71,6.42-2.05,11.26-7.16,13.59-13.41h-14.79c-1.91,3.18-4.92,3.9-8.46,3.6-4.26-.36-8-4.65-7.74-8.92h30.37c.64,5.94,3.7,11.91,8.38,15.64,6.53,5.21,16.49,6.64,23.01.63.9-.83,1.53-1.85,2.42-2.66v4.22h13.7v-65.38h-13.7ZM52.13,113.93c1.52-9.09,15.21-9.38,16.44,0h-16.44ZM104.85,131.09c-10.34-2.06-9.64-20.9.47-22.12,13.84-1.67,13.48,24.9-.47,22.12Z"/>
    <polygon class="cls-2" points="167.51 90.31 167.51 75.77 129.55 75.77 129.55 141.14 167.51 141.14 167.51 126.6 146.53 126.6 146.53 113.62 167.51 113.62 167.51 99.7 146.53 99.7 146.53 90.31 167.51 90.31"/>
  </g>
</svg>