<?xml version="1.0" encoding="UTF-8"?>
<svg id="Layer_1" data-name="Layer 1" xmlns="http://www.w3.org/2000/svg" viewBox="0 0 250 250">
  <defs>
    <style>
      .cls-1 {
        fill: #fff;
      }
    </style>
  </defs>
  <path class="cls-1" d="M14.76,176.12V30.07h220.7v189.86H14.76v-32.65c.23,2.26,1.63,8.71,2.52,10.79,5.8,13.57,18.89,3.69,21.53-6.49l4.22,9.78c5.56,2.44,3.17-9.68,3.52-13.64.26-2.98,2.33-11.92,4.87-13.38,1.61-.93,4.17-.68,6.28-1.66-.5,4.38-3.86,8.98-4.33,15-1.51,19.58,9.27,16.52,8.63.46l5.57,11.15c.54-.66,1.74-1.28,1.85-2.11.25-1.91-5.88-13.97-6.17-17.55-.16-1.98,2.66-6.42,1.22-9.43-3.22-1.94-4.43,1.39-6.78,2.48.09-.83-.05-1.73,0-2.57-11.66-1.72-14.24,10.63-14.61,19.75-1.22-.12-1.49-3.83-1.61-4.83-.27-2.46.73-12.56-3.59-9.39-2.02,2.65-.14,6.42-.42,9.19-.78,7.78-12.04,24.95-17.11,11.02-2.32-6.37-2.32-17.61-1.11-24.26.32-1.78,1.36-5.59,3.69-3.24l.81,5.2c5.59,3.85,3.79-8.1-.15-9.31-3.44-1.05-5.39.23-6.69,3.28-.6,1.41-1.98,7.08-2.15,8.58ZM137.57,112.54c-1.51-2.25,1.16-44.29,0-50.69l10.27,18.5,2.64.86c.99-1.2,1.79-2.46,1.54-4.12-.42-2.75-4.89-12.89-6.32-16.07-2.04-4.53-5.28-11.17-7.95-15.24-3.1-4.73-4.55-.18-6.06,2.88-4.8,9.73-8.37,20.1-13,29.92l2.14,1.31c4.93-7.3,7.54-15.95,11.38-23.88.56-1.17-.55-2.37,1.94-1.88v63.14s.81,1.77.81,1.77l2.57.33,1.87-5.58c.03-1.86-1.73-1.14-1.81-1.25ZM110.09,109.1l-1.76-26.16c-1.23-11,2.37-23.74.94-34.44-.25-1.88-.66-2.68-2.19-3.81-2.08-.02-1.18,12.08-1.3,14.15-.09,1.68-.82,3.3-.89,5.13-.5,13.66,1.13,27.21.89,40.84l-7.85-19.2-2.02-2.26-1.35,2.98,12.13,33.04c6.52,4.46,9.59-24.54,11.08-27.8l-2.09-1.37-5.58,18.89ZM136.71,136.17c-.55,4.22.4,9.39,0,13.75l2.13,1.28,2.15-4.29c2.11,16.92,4.11,35.36,8.84,51.73,1.45,5.02,2.65,10.32,7.07,13.55,1.76.38,1.46-.93,1.32-2.17-.3-2.53-2.45-4.12-3.51-6.8-1.66-4.18-2.97-11.16-3.99-15.77-4.12-18.65-5.51-37.98-9.66-56.49-2.51-2.23-4.07,3.08-4.35,5.21ZM203.5,154.49c.89-1.84-.54-3.79-2.72-3.2-5.88,1.81-6.19,38.13-7.63,44.78-.7,3.22-1.9,9.6-5.09,4.7-3.25-4.99-8.54-19.33-9.93-25.29-.74-3.16,1.03-6.73-2.36-8.82-2.97-.62-2.25,6.21-1.89,7.92.87,4.15,9.84,27.19,12.25,29.83,8.75,9.55,11.01-10.96,11.54-15.86.98-9.11.19-24.68,4.06-32.86.52-1.09,1.72-1.09,1.78-1.21ZM108.33,182.95c-7.41-1.08-8.81-11.14-11.95-16.74l-2.19.44c-.96,1.44,1.37,9.84,2.33,11.44.5.84,7.46,7.94,8.16,8.15,1.41.42,4.17.51,5.42-.24l5.13-9.88c2.24,6.38,8.87,39.33,12.39,42.16,1.01.82,1.81.94,3.07.78l-13.67-47.53c-.94-1.39-2.96-1.32-4.16-.39l-4.54,11.8ZM82.6,171.83c2.01,2.08-10.96,28.34,3.02,28.23,2.95-.02,20.56-7.54,21.03-9.78.1-1.19-.78-2.12-1.99-2.01-3.49.3-17.7,11.36-21.19,7.22-4.19-4.97,5.44-21.28,1.8-25.89-4.59-5.82-23.67,9.67-13.39,15.96l1.91-2.12c-5.38-3.85,7.22-13.26,8.82-11.6ZM155.19,169.24c-3.41.61.94,4.09,1.14,4.9.31,1.27-1.04,5.7-.75,8.44.71,6.63,6.36,10.96,12.95,8.62,5.72-7.86-4.84-12.88-6.5-16.83-.47-1.1.48-2.28.02-3.38-1.28-3.13-3.02.04-4.15-.15-.77-.12-1.64-1.8-2.71-1.61ZM209.45,187.07c.62-.53,5.25-7.5,5.3-8.07l-1.26-1.97c-5.23-.06-14.48,9.94-10.72,15.05,3.24,4.41,18.66,3.22,23.64,2.04,1.97-.47,3.07-1.5,1.76-3.4-3.05.06-23.8,3.1-22.75-2.13.29-1.45,2.95-.58,4.04-1.52Z"/>
  <path d="M14.76,176.12c.17-1.51,1.55-7.17,2.15-8.58,1.3-3.06,3.26-4.33,6.69-3.28,3.94,1.2,5.74,13.16.15,9.31l-.81-5.2c-2.33-2.34-3.37,1.47-3.69,3.24-1.21,6.65-1.21,17.89,1.11,24.26,5.07,13.93,16.33-3.24,17.11-11.02.28-2.77-1.6-6.54.42-9.19,4.31-3.16,3.31,6.93,3.59,9.39.11,1,.39,4.71,1.61,4.83.37-9.12,2.95-21.48,14.61-19.75-.06.84.09,1.74,0,2.57,2.34-1.09,3.56-4.41,6.78-2.48,1.44,3.01-1.38,7.45-1.22,9.43.29,3.58,6.42,15.64,6.17,17.55-.11.83-1.3,1.45-1.85,2.11l-5.57-11.15c.64,16.06-10.14,19.12-8.63-.46.46-6.02,3.83-10.63,4.33-15-2.11.98-4.67.73-6.28,1.66-2.54,1.47-4.61,10.41-4.87,13.38-.35,3.96,2.04,16.08-3.52,13.64l-4.22-9.78c-2.64,10.18-15.73,20.06-21.53,6.49-.89-2.09-2.29-8.53-2.52-10.79-.29-2.85-.32-8.35,0-11.17ZM57.69,196.73c1.2-4.78.88-9.7.86-14.6-1.22-.18-1.34,2.36-1.47,3.24-.42,2.76-1.99,10.03.61,11.36Z"/>
  <path d="M137.57,112.54c.07.11,1.84-.61,1.81,1.25l-1.87,5.58-2.57-.33-.81-1.77v-63.14c-2.49-.49-1.37.72-1.94,1.88-3.84,7.94-6.46,16.59-11.38,23.88l-2.14-1.31c4.63-9.82,8.2-20.19,13-29.92,1.51-3.06,2.96-7.61,6.06-2.88,2.67,4.07,5.91,10.71,7.95,15.24,1.43,3.18,5.9,13.33,6.32,16.07.25,1.66-.55,2.92-1.54,4.12l-2.64-.86-10.27-18.5c1.16,6.39-1.51,48.44,0,50.69Z"/>
  <path d="M110.09,109.1l5.58-18.89,2.09,1.37c-1.48,3.25-4.55,32.26-11.08,27.8l-12.13-33.04,1.35-2.98,2.02,2.26,7.85,19.2c.25-13.63-1.38-27.18-.89-40.84.07-1.83.79-3.45.89-5.13.11-2.07-.78-14.17,1.3-14.15,1.53,1.13,1.94,1.92,2.19,3.81,1.43,10.7-2.17,23.45-.94,34.44l1.76,26.16Z"/>
  <path d="M203.5,154.49c-.06.12-1.26.12-1.78,1.21-3.87,8.17-3.07,23.75-4.06,32.86-.53,4.9-2.79,25.41-11.54,15.86-2.42-2.64-11.39-25.68-12.25-29.83-.36-1.71-1.08-8.54,1.89-7.92,3.39,2.08,1.62,5.65,2.36,8.82,1.39,5.96,6.68,20.29,9.93,25.29,3.19,4.89,4.39-1.48,5.09-4.7,1.44-6.65,1.75-42.97,7.63-44.78,2.19-.59,3.61,1.36,2.72,3.2Z"/>
  <path d="M136.71,136.17c.28-2.13,1.84-7.43,4.35-5.21,4.15,18.51,5.54,37.83,9.66,56.49,1.02,4.61,2.33,11.59,3.99,15.77,1.07,2.68,3.22,4.27,3.51,6.8.15,1.24.44,2.56-1.32,2.17-4.42-3.23-5.62-8.53-7.07-13.55-4.73-16.37-6.73-34.81-8.84-51.73l-2.15,4.29-2.13-1.28c.4-4.36-.55-9.52,0-13.75Z"/>
  <path d="M108.33,182.95l4.54-11.8c1.2-.93,3.22-1,4.16.39l13.67,47.53c-1.26.16-2.06.03-3.07-.78-3.52-2.83-10.15-35.79-12.39-42.16l-5.13,9.88c-1.25.76-4.01.67-5.42.24-.71-.21-7.66-7.31-8.16-8.15-.96-1.6-3.29-10-2.33-11.44l2.19-.44c3.14,5.6,4.54,15.67,11.95,16.74Z"/>
  <path d="M82.6,171.83c-1.61-1.66-14.2,7.75-8.82,11.6l-1.91,2.12c-10.28-6.29,8.81-21.78,13.39-15.96,3.63,4.61-6,20.93-1.8,25.89,3.5,4.14,17.7-6.92,21.19-7.22,1.21-.1,2.09.83,1.99,2.01-.47,2.24-18.08,9.75-21.03,9.78-13.98.11-1.01-26.15-3.02-28.23Z"/>
  <path d="M209.45,187.07c-1.09.94-3.75.07-4.04,1.52-1.05,5.23,19.7,2.19,22.75,2.13,1.32,1.9.22,2.93-1.76,3.4-4.98,1.18-20.4,2.37-23.64-2.04-3.76-5.12,5.49-15.11,10.72-15.05l1.26,1.97c-.06.57-4.68,7.54-5.3,8.07Z"/>
  <path d="M155.19,169.24c1.07-.19,1.95,1.48,2.71,1.61,1.13.18,2.87-2.98,4.15.15.45,1.1-.49,2.28-.02,3.38,1.67,3.95,12.22,8.97,6.5,16.83-6.59,2.34-12.24-1.99-12.95-8.62-.29-2.74,1.06-7.17.75-8.44-.2-.81-4.55-4.29-1.14-4.9ZM160.99,187.05c.37.38,3.3,1.75,3.64,1.72,5.85-1.9-4.32-13.28-5.59-11.78-.15,2.9-.22,7.87,1.95,10.07Z"/>
  <path class="cls-1" d="M57.69,196.73c-2.6-1.34-1.03-8.6-.61-11.36.13-.87.25-3.42,1.47-3.24.02,4.9.34,9.82-.86,14.6Z"/>
  <path class="cls-1" d="M160.99,187.05c-2.16-2.2-2.09-7.16-1.95-10.07,1.27-1.5,11.44,9.88,5.59,11.78-.34.03-3.27-1.34-3.64-1.72Z"/>
</svg>