<?xml version="1.0" encoding="UTF-8"?>
<svg id="Layer_1" data-name="Layer 1" xmlns="http://www.w3.org/2000/svg" viewBox="0 0 211 60">
  <defs>
    <style>
      .cls-1 {
        fill: #fff;
      }
    </style>
  </defs>
  <path class="cls-1" d="M32.52,31.43c.11-.95.97-4.5,1.35-5.39.82-1.92,2.05-2.72,4.2-2.06,2.47.76,3.6,8.27.09,5.85l-.51-3.27c-1.46-1.47-2.11.92-2.32,2.04-.76,4.17-.76,11.24.7,15.24,3.19,8.75,10.26-2.04,10.75-6.92.17-1.74-1-4.11.26-5.78,2.71-1.99,2.08,4.35,2.25,5.9.07.63.24,2.96,1.01,3.03.23-5.73,1.85-13.49,9.18-12.41-.04.53.06,1.09,0,1.62,1.47-.69,2.23-2.77,4.26-1.56.91,1.89-.87,4.68-.77,5.92.18,2.25,4.03,9.82,3.88,11.02-.07.52-.82.91-1.16,1.33l-3.5-7c.4,10.09-6.37,12.01-5.42-.29.29-3.78,2.41-6.68,2.72-9.43-1.32.62-2.93.46-3.94,1.05-1.59.92-2.9,6.54-3.06,8.41-.22,2.49,1.28,10.1-2.21,8.57l-2.65-6.15c-1.66,6.4-9.88,12.6-13.53,4.08-.56-1.31-1.44-5.36-1.58-6.78-.18-1.79-.2-5.24,0-7.02ZM59.48,44.38c.75-3,.55-6.09.54-9.17-.77-.11-.84,1.49-.92,2.03-.26,1.73-1.25,6.3.38,7.14Z"/>
  <path class="cls-1" d="M151.08,17.85c-.04.08-.79.08-1.12.76-2.43,5.13-1.93,14.92-2.55,20.64-.33,3.08-1.75,15.96-7.25,9.96-1.52-1.66-7.15-16.13-7.7-18.74-.22-1.07-.68-5.37,1.19-4.98,2.13,1.31,1.02,3.55,1.48,5.54.88,3.74,4.2,12.75,6.24,15.89s2.76-.93,3.2-2.96c.9-4.18,1.1-26.99,4.79-28.13,1.37-.37,2.27.86,1.71,2.01Z"/>
  <path class="cls-1" d="M109.12,6.34c.18-1.34,1.15-4.67,2.73-3.27,2.61,11.63,3.48,23.77,6.07,35.48.64,2.89,1.46,7.28,2.51,9.91.67,1.68,2.02,2.69,2.21,4.27.09.78.28,1.61-.83,1.36-2.78-2.03-3.53-5.36-4.44-8.51-2.97-10.28-4.23-21.87-5.55-32.5l-1.35,2.69-1.34-.81c.25-2.74-.35-5.98,0-8.64Z"/>
  <path class="cls-1" d="M91.29,35.73l2.85-7.41c.75-.58,2.02-.63,2.61.24l8.59,29.86c-.79.1-1.29.02-1.93-.49-2.21-1.78-6.38-22.48-7.78-26.49l-3.22,6.21c-.79.48-2.52.42-3.41.15-.44-.13-4.81-4.59-5.13-5.12-.61-1-2.06-6.28-1.46-7.19l1.37-.28c1.97,3.52,2.85,9.84,7.51,10.52Z"/>
  <path class="cls-1" d="M75.13,28.74c-1.01-1.04-8.92,4.87-5.54,7.29l-1.2,1.33c-6.46-3.95,5.53-13.68,8.41-10.03,2.28,2.9-3.77,13.15-1.13,16.27,2.2,2.6,11.12-4.35,13.31-4.53.76-.07,1.32.52,1.25,1.27-.3,1.4-11.36,6.13-13.21,6.14-8.78.07-.63-16.43-1.9-17.73Z"/>
  <path class="cls-1" d="M154.82,38.31c-.69.59-2.35.04-2.54.95-.66,3.29,12.38,1.38,14.29,1.34.83,1.2.14,1.84-1.1,2.14-3.13.74-12.81,1.49-14.85-1.28-2.36-3.21,3.45-9.5,6.74-9.46l.79,1.24c-.04.36-2.94,4.74-3.33,5.07Z"/>
  <path class="cls-1" d="M120.73,27.11c.67-.12,1.22.93,1.7,1.01.71.11,1.8-1.87,2.61.09.28.69-.31,1.43-.02,2.12,1.05,2.48,7.68,5.63,4.08,10.57-4.14,1.47-7.69-1.25-8.13-5.42-.18-1.72.67-4.5.47-5.3-.12-.51-2.86-2.69-.71-3.08ZM124.37,38.3c.23.24,2.07,1.1,2.29,1.08,3.67-1.19-2.71-8.34-3.51-7.4-.09,1.82-.14,4.94,1.22,6.32Z"/>
  <path class="cls-1" d="M59.48,44.38c-1.63-.84-.65-5.4-.38-7.14.08-.55.15-2.15.92-2.03.01,3.08.21,6.17-.54,9.17Z"/>
  <path class="cls-1" d="M124.37,38.3c-1.36-1.38-1.32-4.5-1.22-6.32.8-.94,7.18,6.21,3.51,7.4-.21.02-2.05-.84-2.29-1.08Z"/>
</svg>