<?xml version="1.0" encoding="UTF-8"?>
<svg id="Layer_1" data-name="Layer 1" xmlns="http://www.w3.org/2000/svg" viewBox="0 0 250 250">
  <defs>
    <style>
      .cls-1, .cls-2 {
        fill: #020202;
      }

      .cls-2 {
        fill-rule: evenodd;
      }
    </style>
  </defs>
  <polygon class="cls-2" points="86.42 155.13 77.82 155.13 77.84 126.92 86.39 126.24 86.42 155.13"/>
  <polygon class="cls-2" points="101.68 125.12 107.95 141.14 114.56 124.47 120.53 124.19 126.6 123.99 126.72 155.15 118.7 155.15 118.7 136.42 112.35 151.81 112.37 151.84 111 155.12 105.15 155.12 97.45 137.33 97.4 137.26 97.4 155.13 89.4 155.13 89.42 125.94 97.31 125.38 101.68 125.12"/>
  <polygon class="cls-1" points="176.82 123.49 185.25 142.36 185.25 142.36 185.25 142.36 185.33 142.55 185.32 142.55 187.93 148.77 190.76 155.12 181.32 155.12 179.14 150.34 168.05 150.42 170.92 143.35 176.02 143.35 172.07 134.22 163.35 155.12 153.56 155.11 167.31 123.38 176.82 123.49"/>
  <path class="cls-2" d="M199.64,147.09l19.57-.08v8.22h-21.95c-7.47-.02-7.42-7.69-7.42-7.69l-.02-15.66c.17-7.98,8.57-8.04,8.57-8.04l20.71.95v8.35l-19.49-1.01c-2.09.65-2.04,2.74-2.04,2.74l.06,10.21s-.03,1.98,2.01,2.01h0Z"/>
  <polygon class="cls-2" points="249.37 127.02 246.26 126.73 243.15 126.47 240.03 126.19 236.92 125.96 235.19 125.82 233.42 125.69 231.7 125.57 229.9 125.46 227.72 125.32 225.5 125.18 223.33 125.05 221.15 124.92 221.16 127.15 221.17 129.39 221.18 131.63 221.19 133.18 231.18 133.84 231.19 155.12 239.47 155.12 239.47 134.26 249.23 135.1 249.37 127.02"/>
  <polygon class="cls-1" points="114.58 94.76 105.45 112.54 96 94.78 86.4 94.78 90.17 102.42 84.05 113.48 74.88 94.77 65.03 94.77 78.77 121.96 89.72 120.99 94.71 111.03 99.71 120.24 110.98 119.72 124.33 94.78 114.58 94.76"/>
  <polygon class="cls-1" points="200.19 94.85 191.44 94.85 191.48 118.83 215.87 119.65 215.87 112.44 200.18 112.07 200.19 94.85"/>
  <path class="cls-1" d="M236.07,94.81h-18.07l-.05,24.99s23.89,1.66,24.88,1.63c1.42,0,2.55-.27,3.46-.69l.33-.15c2.3-1.2,3.16-3.06,3.25-4.38.02-.29.09-.57.09-.86v-11.39c-.01-2.36.37-4.2-1.22-6.37-1.33-1.82-3.24-2.75-6.27-2.77-2.66-.02-6.42-.02-6.42-.02h0ZM242.26,111.92c0,2.14-2.23,1.99-2.23,1.99l-13.78-.65-.03-11.17,14.13.27c2.05.07,1.9,2.19,1.9,2.19l.02,7.36h0Z"/>
  <path class="cls-1" d="M155.53,100.67s.36-5.79-6.04-5.87l-19.53-.04s-6.29-.47-6.51,5.61l.07,13.3s.06,5.19,6.22,5.28l20.04-.43s5.69.5,5.77-6.15l-.03-11.7h0ZM147.83,110.54c0,1-.82,1.82-1.82,1.82h-13.02c-1,0-1.82-.82-1.82-1.82v-7.27c0-1,.82-1.82,1.82-1.82h13.02c1,0,1.82.82,1.82,1.82v7.27Z"/>
  <path class="cls-1" d="M150.88,123.48h-2.04c-.15,0-.31,0-.46.01-2.9.04-7.77.1-11.08.16-4.1.08-7.56.19-7.56.19v31.29h8.7v-10.07h.01l.02-14.08h9.66c1.36,0,2.47,1.11,2.47,2.47v1.11c0,1.36-1.11,2.47-2.47,2.47h-7.17c-.06,0-.11,0-.17-.01h0v7.99s8.11-.13,8.11-.13h1.99c4.45,0,8.05-3.61,8.05-8.05v-5.32c0-4.45-3.61-8.05-8.05-8.05h0Z"/>
  <path class="cls-1" d="M183.71,111.3c2.82-.85,4.87-3.45,4.87-6.54v-3.07c0-3.78-3.06-6.84-6.84-6.84h-1.53c-5.97-.01-22.19-.02-22.19-.02v23.64h8.54v-17.02h12.3c1.15,0,2.08.93,2.08,2.08s-.93,2.08-2.08,2.08h-10.01v6.39h5.27l5.38,6.57,9.96.22-5.77-7.48h0Z"/>
  <path class="cls-1" d="M35.05,132.39c.61-.12,1.21-.24,1.81-.35-.61.11-1.21.23-1.81.35Z"/>
  <path class="cls-1" d="M30.67,133.28c.83-.18,1.66-.35,2.49-.52-.83.17-1.66.34-2.49.52Z"/>
  <path class="cls-1" d="M26.54,134.19c1.02-.24,2.04-.46,3.06-.69-1.02.22-2.04.45-3.06.69Z"/>
  <path class="cls-1" d="M10.13,138.59s.09-.03.13-.04c.67-.2,1.35-.4,2.02-.6,4.63-1.37,9.29-2.6,13.98-3.69-6.14,1.42-12.23,3.08-18.27,4.98.71-.22,1.43-.44,2.14-.65h0Z"/>
  <polygon class="cls-1" points="45.59 130.56 45.68 155 45.59 130.56 45.59 130.56"/>
  <path class="cls-1" d="M36.87,132.03c-.61.11-1.21.23-1.81.35-.63.12-1.26.24-1.9.37-.83.17-1.66.34-2.49.52-.35.07-.71.15-1.06.23-1.02.22-2.04.45-3.06.69-.09.02-.18.04-.27.06-4.69,1.09-9.35,2.32-13.98,3.69-.67.2-1.35.4-2.02.6-.04.01-.09.03-.13.04h0c-.71.22-1.43.43-2.14.66-.3.09-.6.19-.9.28-2.22.7-4.44,1.44-6.67,2.21-.26.08-.54.34-.38.76.13.33.46.49.8.38,3.16-.98,6.14-1.78,9.29-2.6v10.15c0,2.52,2.06,4.58,4.58,4.58h26.32l-.33-23.67c-1.28.22-2.56.45-3.83.69h0Z"/>
  <path class="cls-1" d="M45.68,155v.02h8.96c2.52,0,4.58-2.06,4.58-4.58v-21.55c-4.58.44-9.12,1-13.63,1.67l.09,24.44h0Z"/>
  <path class="cls-1" d="M33.21,128.94c-.21.05-.42.1-.62.15.21-.05.42-.1.62-.15Z"/>
  <path class="cls-1" d="M29.23,129.94c-.17.04-.33.09-.5.13.17-.04.33-.09.5-.13Z"/>
  <path class="cls-1" d="M37.09,128.03c-.17.04-.34.08-.52.11.17-.04.34-.08.52-.11Z"/>
  <path class="cls-1" d="M21.75,132c-.17.05-.33.09-.49.15.17-.05.33-.09.49-.15Z"/>
  <path class="cls-1" d="M17.94,133.16c-.2.06-.39.12-.59.18.2-.06.39-.12.59-.18Z"/>
  <path class="cls-1" d="M69.21,121.35c-3.37.22-6.68.51-9.98.87v-22.72c0-2.52-2.06-4.58-4.58-4.58H14.71c-2.52,0-4.58,2.06-4.58,4.58v36.22h0c1.15-.4,2.3-.79,3.45-1.17.15-.05.3-.1.46-.15,1.1-.36,2.2-.72,3.31-1.06.2-.06.39-.12.59-.18,1.1-.34,2.21-.68,3.31-1,.17-.05.33-.09.49-.15,1.16-.34,2.32-.67,3.49-1h0c1.16-.32,2.33-.64,3.5-.94.17-.04.33-.09.5-.13,1.12-.29,2.23-.57,3.35-.85.21-.05.42-.1.62-.15,1.12-.27,2.24-.53,3.36-.79.17-.04.34-.08.52-.11,1.18-.27,2.36-.53,3.55-.78l-.61-18.05s2.73-2.27,5.47-.49l.07,17.54c1.05-.2,2.11-.39,3.17-.58.05,0,.11,0,.17,0,.52-.1,1.04-.2,1.57-.29.56-.09,1.12-.19,1.67-.28.8-.13,1.61-.28,2.42-.45,3.37-.58,6.75-1.09,10.17-1.53,1.51-.19,3.04-.4,4.58-.54.22-.02.62-.19.58-.66-.04-.54-.47-.58-.69-.56h0Z"/>
</svg>