<?xml version="1.0" encoding="UTF-8"?>
<svg id="Layer_1" data-name="Layer 1" xmlns="http://www.w3.org/2000/svg" viewBox="0 0 211 60">
  <defs>
    <style>
      .cls-1 {
        fill-rule: evenodd;
      }

      .cls-1, .cls-2 {
        fill: #fff;
      }
    </style>
  </defs>
  <polygon class="cls-1" points="77.5 51.87 71.26 51.87 71.27 31.4 77.48 30.9 77.5 51.87"/>
  <polygon class="cls-1" points="88.57 30.09 93.12 41.71 97.92 29.61 102.26 29.41 106.66 29.26 106.75 51.88 100.93 51.88 100.93 38.29 96.32 49.46 96.33 49.48 95.34 51.86 91.09 51.86 85.5 38.95 85.47 38.9 85.47 51.87 79.66 51.87 79.68 30.68 85.4 30.28 88.57 30.09"/>
  <polygon class="cls-2" points="143.11 28.91 149.23 42.6 149.23 42.6 149.23 42.6 149.29 42.74 149.29 42.74 151.17 47.25 153.23 51.86 146.38 51.86 144.8 48.39 136.75 48.45 138.83 43.32 142.53 43.32 139.66 36.69 133.34 51.86 126.23 51.85 136.21 28.82 143.11 28.91"/>
  <path class="cls-1" d="M159.68,46.03l14.2-.06v5.97h-15.93c-5.42-.02-5.38-5.58-5.38-5.58v-11.37c.11-5.79,6.21-5.84,6.21-5.84l15.03.69v6.06l-14.15-.74c-1.52.47-1.48,1.99-1.48,1.99l.04,7.41s-.02,1.44,1.46,1.46h0Z"/>
  <polygon class="cls-1" points="195.77 31.46 193.51 31.25 191.26 31.06 188.99 30.86 186.74 30.69 185.48 30.59 184.19 30.5 182.94 30.42 181.64 30.34 180.06 30.24 178.44 30.13 176.87 30.03 175.29 29.94 175.29 31.56 175.3 33.18 175.31 34.81 175.32 35.94 182.57 36.41 182.57 51.86 188.59 51.86 188.59 36.72 195.67 37.33 195.77 31.46"/>
  <polygon class="cls-2" points="97.93 8.05 91.31 20.96 84.45 8.06 77.48 8.06 80.22 13.61 75.78 21.64 69.12 8.06 61.97 8.06 71.94 27.79 79.89 27.09 83.51 19.86 87.14 26.54 95.32 26.17 105.01 8.06 97.93 8.05"/>
  <polygon class="cls-2" points="160.08 8.12 153.72 8.12 153.75 25.52 171.46 26.12 171.46 20.88 160.07 20.61 160.08 8.12"/>
  <path class="cls-2" d="M186.12,8.09h-13.11l-.03,18.14s17.34,1.2,18.06,1.18c1.03,0,1.85-.2,2.51-.5l.24-.11c1.67-.87,2.3-2.22,2.36-3.18.01-.21.06-.41.06-.62v-8.27c0-1.72.27-3.05-.88-4.62-.97-1.32-2.35-2-4.55-2.01-1.93-.01-4.66-.01-4.66-.01h0ZM190.61,20.5c0,1.55-1.62,1.45-1.62,1.45l-10-.47-.02-8.11,10.26.2c1.48.05,1.38,1.59,1.38,1.59v5.34s.01,0,.01,0Z"/>
  <path class="cls-2" d="M127.66,12.34s.26-4.2-4.38-4.26l-14.17-.03s-4.57-.34-4.72,4.08l.05,9.65s.05,3.77,4.52,3.83l14.55-.31s4.13.36,4.19-4.47l-.02-8.49h0ZM122.07,19.5c0,.72-.59,1.32-1.32,1.32h-9.45c-.72,0-1.32-.59-1.32-1.32v-5.28c0-.72.59-1.32,1.32-1.32h9.45c.72,0,1.32.59,1.32,1.32v5.28Z"/>
  <path class="cls-2" d="M124.29,28.9h-1.48c-.11,0-.22,0-.33,0-2.1.03-5.64.07-8.05.12-2.98.06-5.49.13-5.49.13v22.71h6.32v-7.31h0v-10.22h7.02c.99,0,1.8.81,1.8,1.8v.81c0,.99-.81,1.8-1.8,1.8h-5.2s-.08,0-.12,0h0v5.8s5.88-.09,5.88-.09h1.44c3.23,0,5.84-2.62,5.84-5.84v-3.86c0-3.23-2.62-5.84-5.84-5.84h0Z"/>
  <path class="cls-2" d="M148.11,20.05c2.04-.61,3.54-2.51,3.54-4.75v-2.23c0-2.74-2.22-4.96-4.96-4.96h-1.11c-4.33,0-16.1-.01-16.1-.01v17.16h6.2v-12.36h8.93c.83,0,1.51.67,1.51,1.51s-.67,1.51-1.51,1.51h-7.26v4.64h3.83l3.91,4.77,7.23.16-4.19-5.43h0Z"/>
  <path class="cls-2" d="M40.21,35.36c.44-.09.88-.17,1.32-.26-.44.08-.88.17-1.32.26Z"/>
  <path class="cls-2" d="M37.03,36.01c.6-.13,1.2-.26,1.81-.38-.6.12-1.2.25-1.81.38Z"/>
  <path class="cls-2" d="M34.03,36.67c.74-.17,1.48-.34,2.22-.5-.74.16-1.48.33-2.22.5Z"/>
  <path class="cls-2" d="M22.13,39.86s.06-.02.1-.03c.49-.15.98-.29,1.46-.43,3.36-.99,6.75-1.89,10.15-2.68-4.46,1.03-8.87,2.23-13.26,3.62.52-.16,1.04-.32,1.55-.47h0Z"/>
  <polygon class="cls-2" points="47.86 34.04 47.93 51.78 47.86 34.04 47.86 34.04"/>
  <path class="cls-2" d="M41.53,35.11c-.44.08-.88.17-1.32.26-.46.09-.92.18-1.38.27-.6.12-1.2.25-1.81.38-.26.05-.52.11-.77.16-.74.16-1.48.33-2.22.5-.07.01-.13.03-.2.05-3.4.79-6.79,1.69-10.15,2.68-.49.14-.98.29-1.46.43-.03,0-.06.02-.1.03h0c-.52.16-1.04.31-1.55.48-.22.07-.43.14-.65.21-1.61.51-3.22,1.04-4.84,1.61-.19.06-.39.25-.28.55.09.24.33.35.58.28,2.3-.71,4.46-1.3,6.74-1.88v7.37c0,1.83,1.5,3.32,3.32,3.32h19.1l-.24-17.18c-.93.16-1.86.33-2.78.5h0Z"/>
  <path class="cls-2" d="M47.93,51.78h0s6.51.01,6.51.01c1.83,0,3.32-1.5,3.32-3.32v-15.64c-3.32.32-6.62.72-9.9,1.21l.07,17.74h0Z"/>
  <path class="cls-2" d="M38.88,32.86c-.15.04-.3.07-.45.11.15-.04.3-.07.45-.11Z"/>
  <path class="cls-2" d="M35.99,33.58c-.12.03-.24.06-.36.1.12-.03.24-.06.36-.1Z"/>
  <path class="cls-2" d="M41.69,32.2c-.13.03-.25.06-.38.08.13-.03.25-.06.38-.08Z"/>
  <path class="cls-2" d="M30.56,35.08c-.12.03-.24.07-.36.11.12-.03.24-.07.36-.11Z"/>
  <path class="cls-2" d="M27.79,35.92c-.14.04-.28.09-.43.13.14-.04.28-.09.43-.13Z"/>
  <path class="cls-2" d="M65,27.35c-2.45.16-4.85.37-7.25.63V11.49c0-1.83-1.5-3.32-3.32-3.32h-28.98c-1.83,0-3.32,1.5-3.32,3.32v26.29h0c.83-.29,1.67-.57,2.51-.85.11-.04.22-.07.33-.11.8-.26,1.6-.52,2.4-.77.14-.04.28-.09.43-.13.8-.25,1.6-.49,2.4-.73.12-.03.24-.07.36-.11.84-.25,1.69-.49,2.53-.72h0c.84-.24,1.69-.46,2.54-.68.12-.03.24-.06.36-.1.81-.21,1.62-.41,2.43-.61.15-.04.3-.07.45-.11.81-.2,1.63-.39,2.44-.57.13-.03.25-.06.38-.08.86-.19,1.72-.38,2.58-.56l-.44-13.1s1.98-1.65,3.97-.35l.05,12.73c.76-.14,1.53-.28,2.3-.42.04,0,.08,0,.13,0,.38-.07.76-.14,1.14-.21.4-.07.81-.14,1.21-.21.58-.09,1.17-.21,1.75-.33,2.45-.42,4.9-.79,7.38-1.11,1.1-.14,2.2-.29,3.32-.4.16-.01.45-.13.42-.48-.03-.39-.34-.42-.5-.41h0Z"/>
</svg>