<?xml version="1.0" encoding="UTF-8"?>
<svg id="Layer_1" data-name="Layer 1" xmlns="http://www.w3.org/2000/svg" viewBox="0 0 211 60">
  <path d="M86.32,56.33c-9.14-2.8-5.01-11.89-5.92-18.8-.16-1.22-1.24-.86-1.37-1.39-.29-1.24.13-2.84-.01-4.16h9.3c-.19,1.28.31,3.02.01,4.18-.19.7-1.34.36-1.34.43v13.49c.69,1.03,2.39,1.29,3.56,1.02,1.41-.33,1.4-11.68,1.15-13.57-.16-1.22-1.24-.86-1.37-1.39-.29-1.24.12-2.84-.02-4.16h7.31c-.14,1.32.27,2.92-.02,4.16-.12.53-1.21.17-1.37,1.39-.83,6.28,2.49,16.61-5.92,18.8h-3.98Z"/>
  <path d="M70.38,56.33l-3-1.98c-.57,1.98-1.79,1.3-3.65,1.32v-7.9s3.23.1,3.23.1c.32,5.06,7.62,5.15,5.24.06-7.43-.67-11.27-8.37-6.48-14.32,3.83-4.77,7.41-.33,11.96-1.63v7.24c-3.24,1.12-2.92-2.57-5.11-3.19-2.55-.72-4.07,1.52-1.78,3.11,1.63,1.14,4.56,1.13,6.26,3.01,3.71,4.11,1.97,12.15-3.34,14.17h-3.32Z"/>
  <path d="M177.96,56.33c-7.72-2.24-8.85-11.6-6.86-18.31,1.61-5.43,7.12-9.32,11.84-4.72.54-1.98,1.81-1.29,3.65-1.32v8.56s-3.96-.04-3.96-.04c.26-2.69-1.07-5.51-4.04-3.61-1.85,1.18-1.85,11.98,0,13.22,4.21,1.42,3.63-4.65,8.67-2.99.06,4.76-2.33,7.56-6.64,9.21h-2.66Z"/>
  <path d="M62.41,6.32l-10.3,37.51-28.57,9.78L8.62,6.32h53.79ZM27.21,7.63h-12.62c.14,3.62-1.39,9.09,3.98,6.58l-.66,19.09h6.65c1.12-1.99-1.33-4.67-1.33-4.94V12.24l.66,2.64h3.33s0-7.24,0-7.24ZM39.16,12.24c-3.11.81-9.31-1.55-10.48,2.44-2.05,6.99,6.2,11.68,5.17,18.62-2.81.44-1.69-3.63-1.99-3.95h-3.99s0,8.56,0,8.56c3.78-.98,8.76,1.78,10.32-3.25,2.21-7.11-4.5-11.99-5.01-18.46,2.1.62,2.27,1.12,1.98,3.29h3.99s0-7.24,0-7.24ZM52.45,17.5c-4.26.76-8.05-1.64-10.48,3.11-2.59,5.09-3.28,24.98,6,23.1,4.22-.86,6.6-10.22,2.15-9.8-2.32.22-1.61,2.94-1.67,4.65-3.01.65-3.09-.97-3.31-3.63-.38-4.43-.23-9.32,1.33-13.48,2.08-.19,2,1.75,2.01,3.26l3.96.03v-7.24Z"/>
  <path d="M120.19,4.34c-.19,1.27.31,3.01.02,4.15-.2.75-1.75.72-1.86,1.4-.16.95,2.95,12.39,4.49,13.54-1.09-5.95-1.42-15.25,4.71-18.7,4.78-2.69,6.05.93,8.24.95.22,0,.83-2.44,3.66-1.34v9.21l-3.96-.03c.5-4.15-3.51-6.94-5.32-2.25-1.43,3.71-.56,7.82.72,11.42,3.2.67,4.04-.56,4.98-3.25l4.24.04c.25,7.29-7.13,11.98-13.5,7.78-1.65-1.08-1.79-2.25-3.1-3.18v3.95h-9.97l-.04-4.25,1.53-.37.5-1.63c-.64-1.49-5.97-1.52-6.63,0-.84,2.55,1.77,1.09,2.03,2l-.04,4.25h-14.61l-.09-8.14-3.55-1.74-.39,4.91,1.96.4.08,4.57h-10.63l.08-4.57,1.96-.4c-.59-3.74.64-8.99-.03-12.5-.31-1.63-1.84-1.36-2.02-2.08-.29-1.16.2-2.87.02-4.15h13.61c.35,0,3.85,1.3,4.32,1.64,3.58,2.62,2.15,9.27-2,10.53,4.06.93,2.99,3.64,3.67,6.92,1.5.07,1.4-1.29,1.75-2.21.74-1.96,2.83-8.52,2.97-10.3.14-1.68-2.01-4.2-1.08-6.58h13.28ZM92.29,14.22l3.32-.33c2.9-2.84-.33-4.95-3.32-4.94v5.27ZM114.21,16.18l-1.98-6.57-1.33,6.57h3.32Z"/>
  <path d="M111.88,31.98c1.49.32,2.9,2.69,4.31,3.29v-3.29h13.62c1.11,0,3.49,2.85,3.98,3.96l.33-3.96h9.96l-.08,4.56-1.91.04v13.82h3.99s0-3.95,0-3.95h4.65v9.22h-16.6l-.04-4.91,2.04-.36v-13.82h-1.99c1.17,7.56-2.35,11.18-9.97,10.53l.08,3.25,1.96.4-.05,4.91h-9.96l-.04-4.91,2.04-.36v-13.82h-1.99c1.08,7.34-1.73,10.92-9.3,10.53-1.09,2.44,1.26,3.51,1.32,3.74.33,1.4-.17,3.31.02,4.81h-9.96l-.05-4.91,2.08-.72v-13.1s-1.96-.4-1.96-.4l-.08-4.57c3.93.57,10-.78,13.61,0ZM106.91,42.51c4.77-.04,4.34-6.7,0-5.59v5.59ZM127.32,41.68c3.63-3.76-4.57-9.09-3.04-.26l1.45,1c.5-.22,1.22-.36,1.59-.74Z"/>
  <path d="M159.37,4.34v6.58c1.46-1.04,1.68-3.3,3.16-4.61,6.19-5.47,15.4-1.89,17.25,5.77,4.88,20.21-22.33,23.22-21.08,2.13h-3.33s0-5.26,0-5.26h-1.99v14.48l1.91.04.08,4.56h-11.29l.1-4.52,2.56-1.08v-12.5c-3.65-3.38-2.37,4.01-2.65,4.28h-3.32V4.34h18.59ZM169.66,8.52c-4.48,0-4.19,15.59,0,15.59s4.48-15.59,0-15.59Z"/>
  <path d="M193.57,4.34c6.88,1.01,7.77,8.88,2.33,12.49,3.51.43,2.68,3.84,3.36,6.1.17.56,1.15.47,1.27.95.29,1.24-.12,2.84.02,4.15h-7.98s-.12-7.45-.12-7.45c-1.9-2.83-5.43-3.37-4.55,1.2.32,1.63,1.85,1.37,2.03,2.09.29,1.16-.2,2.87-.02,4.15h-9.96c.18-1.28-.31-2.99-.02-4.15.18-.72,1.71-.45,2.02-2.08s.26-8.74.03-10.6c-.28-2.25-3.38-2.85-2.04-6.87,4.23.44,9.54-.6,13.61,0ZM188.99,8.98c-4.04,1.18,2.04,10.53,3.51,1.72-.32-.98-2.55-2-3.51-1.72Z"/>
  <path d="M83,4.34v9.87h-3.99s0-5.27,0-5.27h-1.99v14.48l1.91.04.08,4.56h-11.29l.08-4.56,1.91-.04v-14.48h-.99c-1.53.64-.93,3.81-1,5.27h-3.32V4.34h18.59Z"/>
  <path d="M158.04,31.98c-.22,2.05.98,4.31-1.37,4.96l2.36,4.24,2.36-4.24c-2.34-.65-1.16-2.91-1.37-4.96h7.31c1.04,4.51-1.32,4.55-3.19,7.71s-4.02,6.81-3.46,10.73h2.67s0,5.26,0,5.26h-11.29v-5.27s2.66,0,2.66,0c.66-4.77-2.63-8.72-4.88-12.64-1.13-1.97-2.71-1.84-1.77-5.8h9.96Z"/>
  <path d="M192.38,31.47c12.2-2.75,12.73,14.5,4.35,16.16-11.54,2.29-11.86-14.47-4.35-16.16ZM194.24,35.28c-1.46.46-2.16,9.63,1.32,8.54,1.46-.46,2.16-9.63-1.32-8.54Z"/>
  <rect x="188.59" y="50.41" width="11.95" height="5.26"/>
</svg>