<?xml version="1.0" encoding="UTF-8"?>
<svg id="Layer_1" data-name="Layer 1" xmlns="http://www.w3.org/2000/svg" viewBox="0 0 250 250">
  <defs>
    <style>
      .cls-1 {
        fill: #fff;
      }
    </style>
  </defs>
  <path class="cls-1" d="M250,15.11l-47.85,174.33-132.8,45.45L0,15.11h250ZM86.42,21.23H27.78c.67,16.83-6.47,42.25,18.49,30.59l-3.07,88.71h30.89c5.23-9.24-6.19-21.7-6.19-22.95V42.64l3.07,12.26h15.47s-.02-33.67-.02-33.67ZM141.97,42.63c-14.44,3.77-43.28-7.19-48.71,11.35-9.52,32.47,28.79,54.29,24.01,86.52-13.07,2.03-7.86-16.89-9.24-18.35h-18.54s.03,39.77.03,39.77c17.59-4.55,40.72,8.28,47.98-15.12,10.25-33.02-20.89-55.72-23.27-85.81,9.77,2.88,10.56,5.21,9.22,15.3h18.54s-.02-33.66-.02-33.66ZM203.7,67.1c-19.79,3.54-37.43-7.64-48.69,14.46-12.05,23.66-15.25,116.1,27.9,107.35,19.6-3.98,30.67-47.5,10.01-45.53-10.8,1.03-7.5,13.66-7.75,21.61-13.97,3.01-14.34-4.51-15.39-16.87-1.75-20.59-1.07-43.3,6.18-62.66,9.68-.9,9.31,8.13,9.35,15.15l18.41.15-.02-33.67Z"/>
</svg>