<?xml version="1.0" encoding="UTF-8"?>
<svg id="Layer_1" data-name="Layer 1" xmlns="http://www.w3.org/2000/svg" viewBox="0 0 211 60">
  <defs>
    <style>
      .cls-1 {
        fill: #fff;
      }
    </style>
  </defs>
  <polygon class="cls-1" points="42.83 29.94 28.29 35.74 14.26 29.67 28.29 11.11 42.83 29.94"/>
  <path class="cls-1" d="M110.91,11.23c13.24-2.2,14.62,16.51,2.45,17.12-11.01.55-12.43-15.46-2.45-17.12ZM109.63,23.5c5,4.63,11.58-3.62,6.46-7.7-5.38-4.29-10.8,3.68-6.46,7.7Z"/>
  <path class="cls-1" d="M196.72,11.89c.54-1.74,10.66-.76,12.53.95,2.9,2.64,1.41,7.92-1.91,9.52l3.67,5.23c-6.33,2.51-4.93-5.67-10.58-4.45v4.72s-3.7,0-3.7,0v-15.97ZM200.42,19.48c1.79-.05,5.99.59,6.38-1.85.25-3.89-3.65-2.75-6.38-2.87v4.72Z"/>
  <path class="cls-1" d="M26.44,36.24L0,47.75l13.06-16.68c2-.58,10.65,4.78,13.38,5.18Z"/>
  <path class="cls-1" d="M93.33,11.1c6.57.92,7.62,7.6,2.47,11.25l3.61,5.5c-6.46,1.84-4.87-5.77-10.58-4.71v4.72s-3.7,0-3.7,0V11.1c2.57.25,5.71-.35,8.2,0ZM88.84,19.48c2.84.06,7.64.37,6.09-3.68-1.66-1.54-4.05-.96-6.09-1.04v4.72Z"/>
  <polygon class="cls-1" points="56.58 48.28 30.14 36.24 43.54 31.04 56.58 48.28"/>
  <polygon class="cls-1" points="189.84 11.1 189.84 14.77 181.38 14.77 181.38 17.91 188.78 17.91 188.78 21.05 181.38 21.05 181.38 24.72 190.37 24.72 190.37 27.86 177.15 27.86 177.15 11.89 177.94 11.1 189.84 11.1"/>
  <path class="cls-1" d="M79.85,14.77h-8.99v3.14s7.44.23,7.44.23l.5,3.44h-7.93v6.29s-3.7,0-3.7,0V11.1h11.9c1.19.85.76,2.39.79,3.66Z"/>
  <path class="cls-1" d="M138.55,21.05v-9.16c.86-1.18,2.42-.75,3.7-.79v16.75l-3.7-.27c-2.22-4.45-8.84-9.86-10.71-14.01-.36-.79-.76-1.52.1-2.24.88-.44,1.79-.37,2.66.03,1.85.85,5.59,8.28,7.94,9.68Z"/>
  <path class="cls-1" d="M105.76,34.66c.86.02,1.84-.21,2.64.27,1.68,1,4.77,7.25,6.88,8.63v-8.9h3.17v14.14c-1.05.03-2.02.18-2.95-.49-2.08-1.49-4.69-7.19-7.1-8.94v9.42h-2.64v-14.14Z"/>
  <polygon class="cls-1" points="192.49 34.66 191.62 37.21 184.55 37.28 184.55 40.42 191.43 40.42 191.2 42.55 184.55 43.34 184.55 46.18 191.62 46.26 192.49 48.8 181.38 48.8 181.38 34.66 192.49 34.66"/>
  <path class="cls-1" d="M171.07,34.66c4.26.74,4.7,7.57.27,9.16l3.69,4.97c-5.31,1.33-4.34-5.99-9.52-4.71v4.72s-2.64,0-2.64,0v-14.14c2.5.3,5.83-.41,8.2,0ZM165.51,41.47c8.42,1.28,8.63-5.53,0-4.19v4.19Z"/>
  <polygon class="cls-1" points="152.83 14.77 147.54 14.77 147.77 11.59 161.32 11.33 161.82 14.77 156.53 14.77 156.53 27.86 152.83 27.86 152.83 14.77"/>
  <polygon class="cls-1" points="98.36 34.66 98.36 37.28 90.43 37.28 90.43 40.42 97.83 40.42 96.96 42.97 90.42 43.04 90.43 46.18 98.09 46.18 98.89 48.8 87.78 48.8 87.78 34.66 98.36 34.66"/>
  <path class="cls-1" d="M145.95,34.66v10.21c0,.27,1.62,1.47,2.1,1.62,2.45.74,4.78-1.41,4.78-3.71v-8.11h2.64v9.16c0,.76-1.6,3.33-2.37,3.93-2.6,2.01-7.36,1.52-9.18-1.39-.21-.33-1.14-2.4-1.14-2.54v-9.16h3.17Z"/>
  <path class="cls-1" d="M209.93,35.72l-1.31,2.55c-1.51-.86-3.24-2.13-5.03-1.26-4.51,2.2,3.84,3.75,4.72,4.23,7.56,4.17-4.18,11.79-8.94,5.19l1.42-1.25c.73-.19,7.06,3.69,7.05-.33,0-2.58-7.99-1.17-7.99-6.28s6.9-4.71,10.07-2.86Z"/>
  <polygon class="cls-1" points="70.25 34.75 74.3 44.61 78.32 34.73 81.44 34.67 75.26 48.82 72.92 48.47 67.16 34.92 70.25 34.75"/>
  <path class="cls-1" d="M170.81,27.86h-3.7V11.1c1.29.04,2.84-.4,3.7.79v15.97Z"/>
  <polygon class="cls-1" points="136.43 34.66 136.44 37.28 132.2 37.28 132.2 48.8 129.56 48.8 129.56 37.28 125.3 37.05 124.8 34.66 136.43 34.66"/>
  <path class="cls-1" d="M127.44,18.96c3.12,2.48,4.34,4.85,3.7,8.9h-3.7v-8.9Z"/>
</svg>