<?xml version="1.0" encoding="UTF-8"?>
<svg id="Layer_1" xmlns="http://www.w3.org/2000/svg" version="1.1" viewBox="0 0 1000 589">
  <!-- Generator: Adobe Illustrator 29.1.0, SVG Export Plug-In . SVG Version: 2.1.0 Build 142)  -->
  <path d="M378.12,514.14c-2.38-2.74-6.7-1.13-9.99-1.5v73.93h43.96v-7.99h-33.97v-64.44Z"/>
  <polygon points="23.47 440.21 34.96 426.75 58.87 460.76 70.44 461.18 41.69 419.22 69.43 387.78 56.89 388.71 23.47 426.73 23.47 387.77 14.48 387.77 14.48 461.69 23.47 461.69 23.47 440.21"/>
  <path d="M461.03,444.71c-6.33,2.62-10.79,6.92-17.77,8.69-23.63,6.01-37.84-10.4-36.21-33.21,2.01-28.18,34.33-32.69,52.49-15.46,1.52.01,2.48-9.35,1.54-10.43-2.08-2.38-13.76-7.22-17.17-7.89-57.71-11.37-63.5,73.47-13.33,77.26,11.48.87,21.71-3.39,31.29-9.15l-.84-9.81Z"/>
  <polygon points="288.21 461.69 288.21 387.77 274.71 388.75 251.23 436.71 225.79 388.75 212.29 387.77 212.29 461.69 222.28 461.69 222.28 401.75 250.73 453.7 279.21 400.75 278.21 461.7 288.21 461.69"/>
  <path d="M132.45,389.35l-30.05,72.34,9.82-.16,7.04-18.22,35.94-.46,7.27,18.71,10.85.12-31.08-73.8c-3.07.02-7.84-1.27-9.79,1.47ZM123.37,434.72l13-34.96c1.22.1,1.68,1.38,2.18,2.3,5.05,9.27,8.4,22.77,12.79,32.66h-27.97Z"/>
  <path d="M330.17,521.63l-1-8.99h-42.96v73.93h42.96l1-7.99h-34.97v-24.98h31.47c2.33-2,2.33-7,0-8.99h-31.47v-22.98h34.97Z"/>
  <path d="M41.96,512.64H14.48v73.93h31.47c2.35,0,11.66-3.47,14.17-4.81,30.76-16.47,20.08-69.11-18.16-69.11ZM58.91,571.55c-4.17,3.44-13.68,7.02-18.95,7.02h-16.48v-56.94h19.48c2.98,0,10.71,2.81,13.52,4.46,14.48,8.51,14.94,35.15,2.44,45.46Z"/>
  <path d="M158.34,521.63l-1-8.99h-42.96v73.93h42.96l1-7.99h-34.97v-24.98h31.47c2.33-2,2.33-7,0-8.99h-31.47v-22.98h34.97Z"/>
  <polygon points="221.26 569.58 197.16 512.78 187.31 512.65 217.36 586.98 222.64 588.62 254.24 512.65 243.75 513.63 221.26 569.58"/>
  <path d="M883.61,514.14v51.45l-45.89-51.51-7.05-1.44v74.93h8.99v-55.94c16.26,15.51,29.85,34.88,45.44,50.96,2.31,2.38,5.01,6.28,8.51,5.98v-75.92c-3.29.37-7.61-1.24-9.99,1.5Z"/>
  <path d="M870.52,388.38l-30.86,73.3c2.71-.41,7.79.86,10-.47,2.09-1.26,5.04-14.1,7.06-16.92,1.12-1.56,1.62-1.44,3.36-1.64,9.75-1.12,21.84.8,31.86.22,3.55,1.22,5.58,17.97,10.15,18.82,2.54.47,5.82-.3,8.49,0l-31.12-73.76-8.94.45ZM861.64,434.72c-.18-1.41.08-2.68.47-4.03,2.81-9.69,9.7-21.11,13.02-30.95l13.49,34.98h-26.97Z"/>
  <path d="M985.52,305.85v-5h-51.45L827.67,5.15h52.95l-.44-4.06-115.01-.99-2.95,1.04-115.36,237.77L500.79,1.36,371.12.15v5h62.44l1.07,3.04-39.51,79.88L341.49,1.32c-29.58-.65-59.2.28-88.79-.12-11.91-.16-24.96-2.53-36.97-1.09-1.06.13-2.32-.03-3.01.98l-.44,4.06h62.94l-143.86,260.74V5.15h53.45l1.5-4.99c-33.23-.87-66.3,1.09-99.45,1.04-3.08,0-5.81-1.08-8.9-1.09-20.83-.09-41.67.17-62.49.04v5h53.95v295.7H15.48v5c23.47-.07,46.98.05,70.47.04,9.85,0,20,0,29.88,0,23.49.02,47-.11,70.48-.05l-1.5-4.99h-53.45v-22.48l53.86-97.77,2.07-.63,73.94,120.88h-55.94v5c25.81-.05,51.64.03,77.46.04,9.17,0,18.67,0,27.88,0,24.83,0,49.66-.1,74.48-.04v-5h-53.45l-112.24-180.54,58.29-110.18,180.32,290.72h-55.94v5c25.81-.05,51.64.03,77.46.04,8.84,0,18,0,26.88,0,25.16,0,50.33-.1,75.48-.04v-5h-54.95l-127.42-206.71,37.52-81c2.27,1.63,3.89,4.72,5.4,7.08,34.98,54.63,69.47,110.25,102.9,165.83,24.75,41.15,47,85.02,72.31,125.49.36.57,1.52,2.8,2.18,2.3L765.72,8.15l102.91,292.71h-52.45l-1.5,4.99c24.81-.03,49.65.04,74.47.05,8.22,0,16.69,0,24.89,0,23.83,0,47.67-.1,71.48-.04Z"/>
  <polygon points="764.73 395.76 789.71 395.76 789.71 461.69 799.7 461.69 799.7 395.76 824.67 395.76 824.67 387.77 764.73 387.77 764.73 395.76"/>
  <polygon points="950.55 387.77 941.56 387.77 941.56 461.69 984.51 461.69 985.51 452.7 950.55 452.7 950.55 387.77"/>
  <polygon points="792.7 521.63 791.71 512.64 748.75 512.64 748.75 586.57 791.71 586.57 792.7 578.57 757.74 578.57 757.74 553.6 789.71 553.6 789.71 544.61 757.74 544.61 757.74 521.63 792.7 521.63"/>
  <polygon points="925.57 521.63 950.55 521.63 950.55 587.57 959.54 587.57 959.54 521.63 985.51 521.63 985.51 512.64 925.57 512.64 925.57 521.63"/>
  <path d="M655,461.53l9.83.16-30.05-72.34c-1.95-2.73-6.72-1.44-9.79-1.47l-31.08,73.8,10.87-.11,7.74-18.73h35.22s7.27,18.68,7.27,18.68ZM615.88,434.72l13.49-34.98,14.49,34.98h-27.97Z"/>
  <path d="M522.71,386.01c-39.72,6.18-40.11,74.1,4.77,77.66,56.55,4.49,55.66-87.06-4.77-77.66ZM534.36,454.59c-38.02,3.72-40.67-54.33-9.64-59.59,42.86-7.28,44.96,56.14,9.64,59.59Z"/>
  <path d="M588.95,517.09c-2.01-1.46-9.4-4.45-11.53-4.45h-27.47v73.43c2.15,2.36,7.84,2.36,9.99,0v-29.47h19.48c.42,0,7-2.64,7.85-3.14,12.3-7.26,13.22-27.97,1.69-36.36ZM586.93,538.14c-1.45,11.87-18.08,10.49-26.99,10.46v-26.97h17.48c.35,0,4.79,2.06,5.46,2.54,4.55,3.26,4.69,8.77,4.05,13.97Z"/>
  <path d="M470.8,510.92c-46.59,4.88-43.75,78.44,4.72,78.44,51.97,0,49.65-84.14-4.72-78.44ZM468.77,579.34c-28.33-4.79-29.17-57,4.06-59.42,41.67-3.03,40.62,66.97-4.06,59.42Z"/>
  <path d="M701.86,404.16c-.65-15.2,24.71-10.95,31.89-3.41,3.57-10.15-2.05-13.65-11.56-14.9-13.71-1.8-31.12,2.44-30.41,19.35.89,21.51,33.08,20.5,36.52,33.48,5.55,20.96-25.52,19.06-34.99,8.04l-2.33,9.38.79,1.07c18.49,12.36,51.99,7.65,46.76-20.73-3.07-16.68-36.1-18.92-36.67-32.29Z"/>
  <path d="M669.33,562.6l-24.42-48.52c-2.79-2.84-9.21-.92-13.04-1.44v74.93h8.99v-60.94l28.47,52.01,28.47-52.01v60.94h8.99v-74.93l-12.5.99-24.96,48.97Z"/>
</svg>