<?xml version="1.0" encoding="UTF-8"?>
<svg id="Layer_1" data-name="Layer 1" xmlns="http://www.w3.org/2000/svg" viewBox="0 0 211 60">
  <defs>
    <style>
      .cls-1 {
        fill: #fff;
      }
    </style>
  </defs>
  <path class="cls-1" d="M63.72,17.94c.06.02.3.29.25.34-1.17.2-1.7.25-1.48,1.56.4,2.44,2.28,5.45,2.87,7.93l.89,1.81,2.47-7.51c-.69-1.93-.67-2.95-2.68-3.76-.26-.1-.46.1-.37-.38h6.76c.08.47-.09.29-.37.38-.6.21-1.43.22-1.62,1.02l3.6,10.25c.84-2.56,1.92-5.22,2.67-7.8.58-2.02,1.06-2.62-1.03-3.46-.26-.1-.46.1-.37-.38h4.9c.07.47-.67.44-1.07.7-.67.44-1.01,1.17-1.33,1.88-1.13,2.56-1.88,5.64-2.84,8.31-.54,1.49-1.08,2.99-1.72,4.45h-.48s-3.65-10.11-3.65-10.11c-1.09,2.64-1.77,5.47-2.88,8.1-.2.47-.7,1.96-1.18,2.03-.35.07-.24-.13-.33-.34-1.81-4.1-3.01-9.36-5.02-13.23-.41-.79-1.06-1.45-2.01-1.46-.05-.05.22-.34.25-.34h5.75Z"/>
  <path class="cls-1" d="M162.06,32.96c-.6.11-.73-.37-1.02-.77l-.24-.08c-5.85,3.06-14.07.64-13.63-7.01.4-6.95,8.14-9.27,13.63-6.16.63-.01.57-1.05,1.26-.84v4.89c-.68-.14-.76-1.25-1.11-1.85-3.6-6.09-10.89-2.43-11.07,4.28-.23,8.05,9.18,10.46,11.76,2.79.13-.29.42,0,.42.09v4.64Z"/>
  <path class="cls-1" d="M129.5,22.49l3.47,7.76,3.55-7.76h3.38l-1.19.75c-.18.26-.27.56-.32.86-.22,1.58-.17,5.76-.02,7.42.11,1.2.43.98,1.29,1.41.18.09.32-.09.24.35h-5.07c-.04-.54.73-.35,1.19-.75.56-.47.63-2.09.67-2.87.11-1.85-.09-3.8,0-5.66l-4.31,8.94-4.14-8.78v7.34c0,.05.35.83.43.92.27.31.71.34,1.02.5.18.09.32-.09.24.35h-3.89c-.04-.55.68-.39,1.11-.83.88-.9.55-3.73.57-5s.36-2.5-.03-3.84l-1.32-1.13h3.13Z"/>
  <path class="cls-1" d="M182.1,22.49c2.05.32,3.38,2.52,2.19,4.38l-1.77,1.44c1.28,1.11,1.93,3.14,3.3,4.14.39.28.67.31,1.03.49.18.09.32-.09.24.35h-3.13c-.98-1.13-1.62-2.52-2.62-3.63-.65-.73-1.18-1.31-2.2-1.43v3.97c0,.25,1.15.95,1.52.76v.34h-4.91c-.09-.48.12-.28.37-.38.96-.4,1.05-.39,1.16-1.55.15-1.59.22-6.11-.02-7.59-.04-.26-.13-.51-.33-.68-.41-.35-1.08-.02-1.01-.6,1.89.21,4.36-.28,6.17,0ZM179.14,27.89c4.97.39,4.97-5.46,0-5.06v5.06Z"/>
  <path class="cls-1" d="M27.78,25.53c.14.55-.53.28-.81.55-.45.44-.1,5.55-.2,6.63-.22,2.46-2.96,4.69-5.36,4.95-2.91.31-5.96-.73-8.77.7l1.94-1.18c-3.27-.45-6.53.24-9.38,1.86.1-.59,1.2-1.36,1.72-1.66,4.69-2.73,10.85.06,15.79-1.29.95-.26,1.74-.78,2.36-1.52l-1.35-.34c.79-.48,1.28-.08,1.48-1.22.22-1.21.16-4.73.05-6.04s-.41-.69-1.19-1.43h3.72Z"/>
  <path class="cls-1" d="M196.14,22.49c.31.1,1.13,2.23,1.1,2.7-.61-.22-.92-.92-1.44-1.35-1.12-.91-2.64-1.19-4.06-1.03-.25.03-.43.02-.58.26v4.47c1.99.07,2.6,0,3.34-1.82.1-.26-.1-.46.38-.37v4.89c-.39.07-.27-.02-.38-.22-.19-.34-.23-.83-.49-1.19-.68-.96-1.81-.8-2.85-.78v4.14c0,1.02,3.07.69,3.73.52,1.32-.35,1.7-1.15,2.43-2.14.14-.19,0-.42.44-.32l-.68,3.04h-9.3l1.26-.85c.2-.33.24-.7.27-1.08.14-1.64.22-6.07-.02-7.59-.04-.26-.13-.51-.33-.68-.41-.35-1.08-.02-1.01-.6h8.2Z"/>
  <path class="cls-1" d="M5.79,25.53c.11.59-.82.22-.81.9l2,5.69c.24-.02.27-.25.34-.42.3-.66,1.19-3.09,1.19-3.72,0-.5-.34-1.46-.68-1.82-.41-.44-1.08-.02-1.02-.63h3.89c.12.58-.52.18-.87.58-.12.14-.16.29-.12.47l1.91,5.54c.41-1.55,1.66-3.8,1.77-5.34.02-.25.03-.46-.14-.67-.33-.4-.99,0-.86-.57h2.87l-.92.69-3.05,8.09c-.21.32-.35-.02-.46-.22-.81-1.56-1.21-3.71-1.91-5.35l-2.37,5.73c-.4,0-2.57-6.61-2.98-7.48-.12-.25-.3-.7-.47-.88-.28-.27-.72-.2-.85-.58h3.55Z"/>
  <path class="cls-1" d="M163.58,33.3c-.11-.5.59-.44.91-.7.61-.49,3.47-7.27,3.88-8.45.07-.19-.07-.47.03-.63.2-.3,1.06-.6,1.18-1.19l.42.12,3.52,9.45c.41.7.68.72,1.31,1.05.18.09.32-.09.24.35h-4.4c-.14-.54.55-.33.76-.67.42-.7-.68-2.6-.87-3.39-1.07.12-2.33-.12-3.37,0-.94.11-1.13,2.2-1.59,2.97l.15.34c.24.44,1.14.19,1.03.75h-3.21ZM170.35,28.74l-1.61-4.22-1.78,4.22h3.38Z"/>
  <path class="cls-1" d="M114.03,33.3c-.07-.54.66-.43,1.02-.8.62-.63,3.35-7.08,3.81-8.32.09-.25-.08-.55-.01-.68.05-.08,1.42-1.18,1.52-1.18l3.68,9.66c.26.61.75.71,1.24.96.18.09.32-.09.24.35h-4.4c-.14-.53.55-.33.77-.67.38-.61-.7-2.65-.87-3.39-.73.14-3.48-.23-3.88.17-.29.3-1.22,2.76-.94,3.14.34.45,1.11.19,1.03.75h-3.21ZM120.79,28.74l-1.52-4.05c-.27-.2-1.64,3.73-1.86,4.05h3.38Z"/>
  <path class="cls-1" d="M202.65,22.49c.08.58-.64.24-1.02.59-.1.09-.17.16-.13.3l1.42,2.64c.27.22.85,1.62,1.17,1.53.24-.07,2.55-3.84,2.21-4.39-.29-.47-1.19-.05-1.11-.67h3.55c.08.44-.06.26-.24.35-.41.2-.71.19-1.11.58-.31.29-3.1,4.48-3.17,4.77-.18.69-.16,3.98.37,4.44.38.33,1.19.1,1.11.67h-4.74l1.33-.96c-.12-1.18.46-2.68.16-3.81-.1-.39-2.54-4.19-2.93-4.67l-1.42-1.36h4.57Z"/>
  <path class="cls-1" d="M90.86,22.49v.34c-.37-.19-1.52.51-1.52.76v8.78c1.01.8,2.83.61,4.03.31.91-.23,1.4-.74,1.9-1.48.25-.37.24-1.13.84-1.1l-.76,3.21h-9.39c-.12-.61.96-.41,1.2-.79.18-.29.3-1.41.33-1.82.1-1.54.2-5.31-.05-6.72-.05-.28-.17-.61-.37-.81-.44-.42-1.14-.09-1.11-.67h4.9Z"/>
  <path class="cls-1" d="M102.02,22.49c.09.49-.12.27-.37.38-.61.26-1.01.24-1.14,1.06-.24,1.57-.16,6.07-.02,7.76.04.44,0,.87.5,1.01,1.33.38,4.03.22,5.03-.83.35-.37.56-1.02.82-1.46.13-.22-.03-.42.42-.33l-.51,3.21h-9.64c-.08-.44.06-.26.24-.35.86-.43,1.18-.21,1.29-1.41.16-1.72.21-6.12-.02-7.76-.1-.74-.4-.63-.97-.89-.24-.11-.46.1-.37-.38h4.74Z"/>
  <path class="cls-1" d="M84.1,22.49l-1.32.96c.03,1.69-.71,7.97.13,9.09l1.19.75h-4.74c-.06-.58,1.01-.4,1.27-.84.1-.17.24-1.59.26-1.94.09-1.54.2-5.15-.05-6.55-.2-1.12-.84-.83-1.48-1.47h4.74Z"/>
  <path class="cls-1" d="M113.18,22.49l-1.32.96c.03,1.62-.7,8.07.12,9.09.36.45,1.25.14,1.2.75h-4.57c-.08-.39.04-.27.22-.38.67-.42.97-.19,1.12-1.24.23-1.56.17-5.77.02-7.42-.1-1.08-.31-1-1.12-1.41-.18-.09-.32.09-.24-.35h4.57Z"/>
  <path class="cls-1" d="M32.35,25.53c.03.68-.84.03-1.01.93-.14.75-.11,4.74.03,5.53.44,2.4,4.03,2.62,4.9.58.37-.88.49-4.96.27-5.9-.05-.2-.15-.4-.31-.54-.41-.35-1.08-.02-1.01-.6h3.21c-.1.44-.77.33-.98.54-.85.86.19,5.5-1.08,7.28-1.04,1.47-4.57,1.51-5.79.26-1.4-1.43-.52-4.99-.83-6.95-.16-1.04-.6-.45-1.14-1.14h3.72Z"/>
  <rect class="cls-1" x="46.38" y="14.73" width=".68" height="32.41"/>
  <path class="cls-1" d="M23.04,25.7v2.87c-.39.07-.27-.03-.38-.22-.44-.79-.55-1.39-1.43-1.95-2.78-1.78-5.14,1.02-5.14,3.77,0,3.19,2.72,5.31,5.55,3.33l1.39-1.9v2.7c-.34.07-.45-.33-.76-.33-.26,0-1.36.55-1.91.63-3.07.42-6.04-1.24-5.97-4.6.08-3.95,4.83-5.73,7.88-3.66l.76-.65Z"/>
  <path class="cls-1" d="M22.54,42.07l.17-1.85c-2.02.49-3.82,1.67-5.41,2.95l-3.38,3.63c1.03-2.65,3.12-5.24,5.75-6.41l-3.52-.63-.37-.38c4.51,1.07,8.55-.4,10.79-4.5.26-.47.24-1.12.7-1.41.3,2.45-1.52,3.91-2.94,5.58l-1.79,3.02Z"/>
  <path class="cls-1" d="M97.79,42.41v-3.38h1.18v5.57l-1.32-.04-2.57-3.51v3.54h-1.18v-5.57c1.97-.36,2.46,2.49,3.89,3.38Z"/>
  <path class="cls-1" d="M68.2,39.03l1.32.04,2.57,3.51v-3.54h1.18v5.57c-.43-.01-.88.11-1.28-.16-.75-.49-1.77-2.75-2.61-3.39v3.54h-1.18v-5.57Z"/>
  <path class="cls-1" d="M127.56,42.41v-3.38h1.18v5.57c-.43-.02-.9.12-1.28-.16-.74-.54-1.71-2.76-2.61-3.39v3.54h-1.18v-5.57c.4.05,1.01-.12,1.35.09.52.31,1.72,2.88,2.54,3.29Z"/>
  <path class="cls-1" d="M156.65,42.41v-3.38h1.18v5.57c-.36-.03-.86.11-1.18-.09-.64-.38-1.83-2.96-2.71-3.46v3.54h-1.18v-5.57c.4.05,1.01-.12,1.35.09.59.36,1.75,2.8,2.54,3.29Z"/>
  <path class="cls-1" d="M90.61,39.03c1.11.22,1.58,1.73,1.22,2.73-.15.4-.79.96-.77,1.2l.99,1.63c-.42-.03-.97.11-1.35-.08-.36-.17-.69-1.29-.88-1.4-.26-.15-.96.03-1.32-.04v1.52s-1.35,0-1.35,0v-5.32l.25-.25c.95.13,2.33-.18,3.21,0ZM88.49,41.9l2.03-.25c.75-1.73-.73-1.69-2.03-1.61v1.86Z"/>
  <path class="cls-1" d="M118.56,38.91c4.28-.53,4.64,5.77.45,5.87-3.72.09-4.32-5.39-.45-5.87ZM118.38,40.09c-1.72.44-1.52,3.37.47,3.51,2.67.19,2.38-4.25-.47-3.51Z"/>
  <path class="cls-1" d="M179.39,39.03c1.72.3,1.92,2.91.47,3.79l1.14,1.77-1.5-.03c-.4-1.03-.8-1.74-2.06-1.49v1.52s-1.35,0-1.35,0v-5.57c1,.12,2.35-.17,3.3,0ZM177.45,41.9c2.98.49,2.97-2.35,0-1.86v1.86Z"/>
  <path class="cls-1" d="M85.28,39.03v1.01h-3.04v1.18h2.71c-.02.36.15,1.02-.28,1.16l-2.43-.15v1.35s2.96,0,2.96,0l.25,1.01h-4.4v-5.57h4.23Z"/>
  <path class="cls-1" d="M171.19,40.05v1.18h2.45c.25,0,.48.99-.02,1.16l-2.43-.14v1.35s3.04,0,3.04,0v1.01h-4.23v-5.57h3.97c.34,0,.34,1.01,0,1.01h-2.79Z"/>
  <path class="cls-1" d="M184.09,40.85c.58.56,2.16.41,2.64,1.33,1.15,2.22-1.87,2.96-3.58,2.22-1.08-.46-.82-.7-.46-1.65.83.46,1.92,1.39,2.79.51.14-.27.11-.37-.09-.59-.63-.67-2.47-.24-2.7-1.7-.37-2.38,2.43-2.48,3.98-1.6.23.33-.04.96-.36,1.18-.7-.38-1.7-.89-2.36-.17-.06.13.04.38.14.47Z"/>
  <path class="cls-1" d="M133.96,39.06c.28.18,1.98,4.89,2.39,5.54-1.55.23-1.21-.16-1.97-1.15h-2.4c-.31,1.03-.58,1.32-1.72,1.15.31-.69,2.12-5.37,2.39-5.54.11-.07,1.19-.07,1.3,0ZM133.98,42.41c.1-.1-.47-1.78-.84-1.86l-.68,1.86h1.52Z"/>
  <path class="cls-1" d="M104.2,39.06l2.22,5.55c-1.14.16-1.41-.12-1.72-1.15h-2.4s-.65,1.13-.65,1.13l-1.16.03,2.28-5.4,1.42-.14ZM104.22,42.41l-.76-1.85c-.27.2-.89,1.73-.76,1.85h1.52Z"/>
  <path class="cls-1" d="M147.01,39.03v3.63c0,.08.46.7.58.77.6.36,1.96.08,1.96-.6v-3.8h1.18v4.14c0,.18-.62,1.02-.86,1.17-.91.57-2.39.57-3.26-.1-.22-.17-.79-1.03-.79-1.24v-3.97h1.18Z"/>
  <path class="cls-1" d="M164.07,39.06c.16.1,1.08,3.04,1.3,3.52.09.2-.01.41.33.34l1.46-3.86,1.33-.02-2.22,5.54-1.42-.14-2.11-5.15c-.14-.46,1.06-.21,1.33-.23Z"/>
  <path class="cls-1" d="M199.77,41.4c.18-.32,1.1-2.26,1.21-2.33.22-.14,1,.04,1.33-.03-.79,1.9-2.45,3.35-2.03,5.57h-1.09c-.16-.02-.08-1.48-.18-1.86-.12-.47-2.19-3.49-1.95-3.71,1.68-.43,1.69,1.51,2.7,2.36Z"/>
  <polygon class="cls-1" points="79.53 39.03 79.53 40.05 77.84 40.05 77.84 44.6 76.49 44.6 76.49 40.05 74.79 40.05 74.79 39.03 79.53 39.03"/>
  <path class="cls-1" d="M28.12,41.56l-1.35-1.01c-.49,1.98-.42,3.67.34,5.57-3.33-3.45-.35-7.66.34-11.48.36.09.35.46.35.76.05,1.97-1.06,4.29.32,6.16Z"/>
  <polygon class="cls-1" points="111.49 39.03 111.49 40.05 109.63 40.05 109.63 44.6 108.45 44.6 108.45 40.05 106.76 40.05 106.76 39.03 111.49 39.03"/>
  <polygon class="cls-1" points="196.05 39.03 196.05 40.05 194.36 40.05 194.36 44.6 193.18 44.6 193.18 40.05 191.48 40.05 191.49 39.03 196.05 39.03"/>
  <polygon class="cls-1" points="139.06 39.03 139.06 43.59 141.43 43.59 141.43 44.6 137.71 44.6 137.71 39.03 139.06 39.03"/>
  <path class="cls-1" d="M37.76,38.02c-1.28-.3-2.67-.92-4-.99s-2.63.39-3.95-.19c.12.63.57,1.12.66,1.79.05.35.09.47-.32.41-.13-1.74-1.75-2.27-2.2-3.71.63.25,1.07.57,1.79.66,2.77.33,5.79-.12,8.01,2.04Z"/>
  <polygon class="cls-1" points="189.96 39.03 189.96 44.6 188.61 44.6 188.61 39.29 188.89 39.06 189.96 39.03"/>
  <rect class="cls-1" x="160.03" y="39.03" width="1.18" height="5.57"/>
  <rect class="cls-1" x="113.01" y="39.03" width="1.18" height="5.57"/>
  <rect class="cls-1" x="64.82" y="39.03" width="1.18" height="5.57"/>
  <path class="cls-1" d="M25.84,20.64c.5-.12,1.1,1.65,1.11,2.11.02,1-.84,2.73-1.68,1.32-.72-1.21-.3-2.46.57-3.43Z"/>
  <path class="cls-1" d="M25.85,16.59c1.26.65,1.19,2.54.13,3.36-1.26-.65-1.19-2.54-.13-3.36Z"/>
  <path class="cls-1" d="M24.56,21.99c-1.47-.26-1.71-2.22-.76-3.2,1.13.91,1.35,1.88.76,3.2Z"/>
  <path class="cls-1" d="M27.27,21.99c-.59-1.33-.37-2.3.76-3.2.89.99.74,2.94-.76,3.2Z"/>
  <path class="cls-1" d="M22.37,21.82c1.21,0,2.6,1.57,1.78,2.69-1.32-.42-2.01-1.26-1.78-2.69Z"/>
  <path class="cls-1" d="M29.47,21.82c.25,1.36-.55,2.66-2.03,2.53-.17-1.28.73-2.45,2.03-2.53Z"/>
  <path class="cls-1" d="M25.84,12.87c.79-.19,1.01,2.49.17,2.7-.79.19-1.01-2.49-.17-2.7Z"/>
  <path class="cls-1" d="M24.15,15.07c.85.31,1.11,1.3.72,2.07-.76,1.49-1.77-1.41-.72-2.07Z"/>
  <path class="cls-1" d="M27.54,15.08c1.34.42.15,3.63-.56,2.05-.33-.72-.12-1.63.56-2.05Z"/>
  <path class="cls-1" d="M30.15,18.11c.38.95.19,2.3-1.01,2.36-.38-.95-.19-2.3,1.01-2.36Z"/>
  <path class="cls-1" d="M22.7,20.47c-1.2-.06-1.4-1.41-1.01-2.36,1.2.06,1.4,1.41,1.01,2.36Z"/>
  <path class="cls-1" d="M30.32,22.16c-.33-1.05-.09-1.86.93-2.36.65.84.23,2.34-.93,2.36Z"/>
  <path class="cls-1" d="M21.52,22.16c-1.16-.02-1.58-1.52-.93-2.36.94.41,1.26,1.43.93,2.36Z"/>
  <path class="cls-1" d="M22.54,16.25c.89.16,1.34,1.43.59,2.02-.89-.39-.89-1.18-.59-2.02Z"/>
  <path class="cls-1" d="M29.3,16.25c.29.83.3,1.63-.59,2.02-.75-.59-.3-1.86.59-2.02Z"/>
  <path class="cls-1" d="M21.35,15.57c.34.79.52,1.24-.25,1.85-.55-.49-.51-1.06-.13-1.64.11-.16-.01-.3.38-.22Z"/>
  <path class="cls-1" d="M30.82,15.57c.25.7.61,1.25-.08,1.85-.61-.52-.74-.96-.29-1.64.11-.16-.02-.3.38-.22Z"/>
  <path class="cls-1" d="M20.67,17.61c.26.65.58,1.12-.07,1.67-.55-.39-.84-.99-.43-1.61l.5-.07Z"/>
  <path class="cls-1" d="M31.16,17.6l.51.07c.41.62.12,1.21-.43,1.61-.5-.44-.21-1.15-.08-1.68Z"/>
  <path class="cls-1" d="M24.4,13.21c.07.67.03,1.42-.84,1.35-.04-.6.04-1.46.84-1.35Z"/>
  <path class="cls-1" d="M28.29,14.56c-.88.07-.91-.68-.84-1.35.8-.11.89.75.84,1.35Z"/>
  <path class="cls-1" d="M29.39,14.22c.56-.11.67,1.29.17,1.51-.49-.33-.65-1.07-.17-1.51Z"/>
  <path class="cls-1" d="M22.29,14.22c.6-.13.56,1.33,0,1.51-.41-.21-.34-1.44,0-1.51Z"/>
</svg>