<?xml version="1.0" encoding="UTF-8"?>
<svg id="Layer_1" data-name="Layer 1" xmlns="http://www.w3.org/2000/svg" viewBox="0 0 250 250">
  <path d="M169.5,99.29c.83,3.3-3.18,1.66-4.83,3.26-2.7,2.62-.62,33.21-1.2,39.68-1.32,14.73-17.71,28.06-32.03,29.61-17.41,1.88-35.67-4.34-52.45,4.18l11.61-7.07c-19.55-2.7-39.04,1.43-56.12,11.1.58-3.52,7.18-8.11,10.29-9.92,28.04-16.34,64.92.35,94.4-7.73,5.67-1.55,10.4-4.64,14.14-9.11l-8.07-2.01c4.7-2.85,7.63-.46,8.84-7.31,1.29-7.27.96-28.29.28-36.14-.66-7.69-2.47-4.14-7.12-8.54h22.25Z"/>
  <path d="M38.02,99.29c.67,3.54-4.93,1.31-4.86,5.36l11.95,34.01c1.43-.12,1.59-1.48,2.05-2.48,1.81-3.97,7.11-18.47,7.12-22.24,0-3-2.05-8.72-4.08-10.87-2.48-2.61-6.47-.13-6.12-3.77h23.26c.71,3.47-3.12,1.08-5.18,3.45-.73.84-.98,1.73-.71,2.82l11.44,33.1c2.43-9.26,9.94-22.75,10.57-31.96.1-1.52.19-2.73-.86-3.99-1.97-2.36-5.9.06-5.16-3.43h17.19l-5.49,4.11-18.27,48.39c-1.27,1.92-2.12-.1-2.75-1.31-4.84-9.33-7.24-22.2-11.41-32l-14.16,34.29c-2.42-.02-15.36-39.51-17.85-44.75-.71-1.49-1.8-4.22-2.84-5.24-1.66-1.64-4.33-1.23-5.11-3.48h21.24Z"/>
  <path d="M196.81,99.29c.18,4.07-5,.21-6.04,5.58-.86,4.48-.65,28.37.21,33.05,2.62,14.34,24.13,15.67,29.29,3.46,2.24-5.29,2.92-29.64,1.61-35.31-.28-1.2-.88-2.41-1.83-3.21-2.46-2.1-6.45-.14-6.04-3.56h19.22c-.63,2.62-4.6,1.99-5.84,3.25-5.1,5.16,1.12,32.91-6.44,43.54-6.23,8.76-27.33,9.04-34.65,1.56-8.37-8.56-3.1-29.81-4.94-41.55-.97-6.23-3.57-2.72-6.8-6.8h22.25Z"/>
  <path d="M141.18,100.3v17.16c-2.36.43-1.61-.17-2.25-1.3-2.66-4.72-3.28-8.3-8.53-11.66-16.64-10.63-30.75,6.13-30.74,22.55,0,19.09,16.29,31.75,33.19,19.94l8.34-11.36v16.15c-2.04.44-2.68-1.96-4.53-2-1.58-.04-8.13,3.31-11.41,3.76-18.37,2.52-36.12-7.42-35.71-27.51.48-23.61,28.9-34.26,47.11-21.86l4.54-3.86Z"/>
  <path d="M138.16,198.21l1-11.09c-12.05,2.93-22.83,9.96-32.38,17.64l-20.21,21.71c6.17-15.84,18.67-31.32,34.38-38.36l-21.03-3.77-2.22-2.27c26.97,6.42,51.16-2.4,64.55-26.93,1.53-2.8,1.42-6.7,4.21-8.4,1.78,14.66-9.06,23.41-17.61,33.39l-10.69,18.09Z"/>
  <path d="M171.52,195.17l-8.09-6.04c-2.93,11.83-2.5,21.94,2.01,33.3-19.94-20.61-2.1-45.79,2.04-68.64,2.14.56,2.07,2.78,2.11,4.54.29,11.77-6.33,25.66,1.93,36.84Z"/>
  <path d="M229.17,173.98c-7.65-1.78-15.98-5.5-23.91-5.93-7.67-.42-15.75,2.33-23.62-1.13.72,3.78,3.4,6.69,3.97,10.68.3,2.1.53,2.83-1.94,2.44-.76-10.38-10.49-13.57-13.16-22.2,3.79,1.51,6.38,3.4,10.73,3.92,16.56,2,34.6-.69,47.93,12.21Z"/>
  <path d="M157.88,70.02c2.98-.74,6.59,9.86,6.64,12.62.13,5.97-5,16.34-10.04,7.92-4.32-7.22-1.8-14.7,3.4-20.54Z"/>
  <path d="M157.98,45.84c7.52,3.86,7.12,15.21.8,20.09-7.52-3.86-7.12-15.21-.8-20.09Z"/>
  <path d="M150.27,78.09c-8.79-1.57-10.2-13.26-4.54-19.16,6.76,5.42,8.09,11.23,4.54,19.16Z"/>
  <path d="M166.48,78.09c-3.55-7.93-2.22-13.74,4.54-19.16,5.33,5.93,4.41,17.58-4.54,19.16Z"/>
  <path d="M137.14,77.09c7.26.03,15.55,9.39,10.63,16.09-7.89-2.5-12.02-7.53-10.63-16.09Z"/>
  <path d="M179.61,77.09c1.47,8.16-3.31,15.88-12.13,15.14-.99-7.63,4.34-14.65,12.13-15.14Z"/>
  <path d="M157.88,23.59c4.72-1.14,6.04,14.92.99,16.14-4.72,1.14-6.04-14.92-.99-16.14Z"/>
  <path d="M147.79,36.71c5.07,1.85,6.65,7.76,4.28,12.38-4.57,8.89-10.57-8.4-4.28-12.38Z"/>
  <path d="M168.07,36.76c8.03,2.51.92,21.7-3.36,12.28-1.95-4.28-.69-9.73,3.36-12.28Z"/>
  <path d="M183.65,54.88c2.3,5.66,1.12,13.76-6.05,14.12-2.3-5.66-1.12-13.76,6.05-14.12Z"/>
  <path d="M139.15,69.01c-7.17-.36-8.34-8.46-6.05-14.12,7.17.36,8.34,8.46,6.05,14.12Z"/>
  <path d="M184.68,79.1c-1.96-6.27-.51-11.15,5.56-14.11,3.86,5.01,1.35,14.01-5.56,14.11Z"/>
  <path d="M132.07,79.1c-6.92-.1-9.43-9.12-5.54-14.13,5.59,2.43,7.56,8.54,5.54,14.13Z"/>
  <path d="M138.16,43.78c5.32.94,8.04,8.56,3.54,12.07-5.32-2.32-5.31-7.08-3.54-12.07Z"/>
  <path d="M178.59,43.78c1.76,4.99,1.77,9.75-3.54,12.07-4.5-3.51-1.78-11.12,3.54-12.07Z"/>
  <path d="M131.05,39.74c2.02,4.72,3.12,7.42-1.5,11.08-3.26-2.91-3.03-6.32-.75-9.79.64-.97-.09-1.8,2.25-1.29Z"/>
  <path d="M187.69,39.74c1.52,4.18,3.65,7.46-.49,11.08-3.64-3.1-4.44-5.73-1.76-9.79.64-.96-.1-1.81,2.25-1.29Z"/>
  <path d="M126.95,51.91c1.53,3.88,3.48,6.67-.44,10.02-3.28-2.36-5.05-5.9-2.58-9.63l3.02-.39Z"/>
  <path d="M189.74,51.85l3.07.44c2.47,3.74.7,7.26-2.58,9.63-3-2.62-1.23-6.88-.49-10.07Z"/>
  <path d="M149.27,25.61c.4,4.02.2,8.49-5.05,8.06-.26-3.56.25-8.75,5.05-8.06Z"/>
  <path d="M172.53,33.68c-5.24.43-5.45-4.04-5.05-8.06,4.8-.69,5.31,4.5,5.05,8.06Z"/>
  <path d="M179.13,31.67c3.33-.68,4.02,7.72,1,9.06-2.94-2-3.88-6.43-1-9.06Z"/>
  <path d="M136.65,31.67c3.61-.76,3.32,7.98-.02,9.06-2.43-1.27-2.06-8.62.02-9.06Z"/>
</svg>