<?xml version="1.0" encoding="UTF-8"?>
<svg id="Layer_1" data-name="Layer 1" xmlns="http://www.w3.org/2000/svg" viewBox="0 0 250 250">
  <defs>
    <style>
      .cls-1 {
        fill: #fff;
      }
    </style>
  </defs>
  <path class="cls-1" d="M0,110.05h18.3v5.55H6.8v6.84h10.75v5.51H6.8v12.04H0v-29.94Z"/>
  <path class="cls-1" d="M28.48,133.78l-1.72,6.21h-5.67l7.39-24.19h7.18l7.5,24.19h-5.89l-1.87-6.21h-6.93ZM34.62,129.69l-1.51-5.13c-.43-1.44-.86-3.23-1.22-4.67h-.07c-.36,1.44-.72,3.27-1.11,4.67l-1.44,5.13h5.35Z"/>
  <path class="cls-1" d="M51.88,115.8v24.19h-5.49v-24.19h5.49Z"/>
  <path class="cls-1" d="M56.62,116.12c1.76-.29,4.38-.5,7.29-.5,3.59,0,6.1.54,7.83,1.9,1.44,1.15,2.23,2.84,2.23,5.06,0,3.09-2.19,5.21-4.27,5.96v.11c1.69.68,2.62,2.3,3.23,4.52.75,2.73,1.51,5.89,1.97,6.82h-5.6c-.4-.68-.97-2.66-1.69-5.64-.65-3.02-1.69-3.84-3.91-3.88h-1.65v9.51h-5.42v-23.87ZM62.04,126.53h2.15c2.73,0,4.34-1.36,4.34-3.48,0-2.23-1.51-3.34-4.02-3.37-1.33,0-2.08.11-2.48.18v6.68Z"/>
  <path class="cls-1" d="M85.95,133.02c1.82.93,4.62,1.87,7.51,1.87,3.11,0,4.75-1.29,4.75-3.24s-1.42-2.93-5.02-4.22c-4.97-1.73-8.22-4.49-8.22-8.84,0-5.11,4.26-9.02,11.33-9.02,3.38,0,5.86.71,7.64,1.51l-1.51,5.46c-1.2-.58-3.33-1.42-6.26-1.42s-4.35,1.33-4.35,2.89c0,1.91,1.69,2.75,5.55,4.22,5.29,1.95,7.77,4.71,7.77,8.93,0,5.02-3.86,9.28-12.08,9.28-3.42,0-6.8-.89-8.48-1.82l1.38-5.6Z"/>
  <path class="cls-1" d="M109.14,115.8h5.42v10.7h.11c.54-.93,1.11-1.79,1.65-2.66l5.49-8.04h6.71l-8.01,10.3,8.44,13.89h-6.39l-5.92-10.45-2.08,2.55v7.9h-5.42v-24.19Z"/>
  <path class="cls-1" d="M136.25,139.99v-9.91l-7.65-14.29h6.25l2.48,5.82c.75,1.76,1.26,3.05,1.87,4.63h.07c.54-1.51,1.11-2.91,1.83-4.63l2.44-5.82h6.14l-7.97,14.11v10.09h-5.46Z"/>
  <path class="cls-1" d="M160.11,110.45c2.09-.36,5.02-.62,9.15-.62s7.15.8,9.15,2.4c1.91,1.51,3.2,4,3.2,6.93s-.98,5.42-2.75,7.11c-2.31,2.18-5.73,3.15-9.73,3.15-.89,0-1.69-.04-2.31-.13v10.7h-6.71v-29.54ZM166.81,124.04c.58.13,1.29.18,2.27.18,3.6,0,5.82-1.82,5.82-4.89,0-2.75-1.91-4.4-5.29-4.4-1.38,0-2.31.13-2.8.27v8.84Z"/>
  <path class="cls-1" d="M190.98,133.78l-1.72,6.21h-5.67l7.39-24.19h7.18l7.5,24.19h-5.89l-1.87-6.21h-6.93ZM197.12,129.69l-1.51-5.13c-.43-1.44-.86-3.23-1.22-4.67h-.07c-.36,1.44-.72,3.27-1.11,4.67l-1.44,5.13h5.35Z"/>
  <path class="cls-1" d="M208.9,116.12c1.76-.29,4.38-.5,7.29-.5,3.59,0,6.1.54,7.83,1.9,1.44,1.15,2.23,2.84,2.23,5.06,0,3.09-2.19,5.21-4.27,5.96v.11c1.69.68,2.62,2.3,3.23,4.52.75,2.73,1.51,5.89,1.97,6.82h-5.6c-.4-.68-.97-2.66-1.69-5.64-.65-3.02-1.69-3.84-3.91-3.88h-1.65v9.51h-5.42v-23.87ZM214.32,126.53h2.15c2.73,0,4.34-1.36,4.34-3.48,0-2.23-1.51-3.34-4.02-3.37-1.33,0-2.08.11-2.48.18v6.68Z"/>
  <path class="cls-1" d="M230.19,115.8h5.42v10.7h.11c.54-.93,1.11-1.79,1.65-2.66l5.49-8.04h6.71l-8.01,10.3,8.44,13.89h-6.39l-5.92-10.45-2.08,2.55v7.9h-5.42v-24.19Z"/>
</svg>