<?xml version="1.0" encoding="UTF-8"?>
<svg id="Layer_1" data-name="Layer 1" xmlns="http://www.w3.org/2000/svg" viewBox="0 0 211 60">
  <path d="M4.38,17.91h14.8v4.49h-9.31v5.53h8.7v4.46h-8.7v9.74h-5.5v-24.22Z"/>
  <path d="M27.42,37.1l-1.39,5.02h-4.59l5.98-19.57h5.81l6.07,19.57h-4.76l-1.51-5.02h-5.6ZM32.38,33.79l-1.22-4.15c-.35-1.16-.7-2.61-.99-3.78h-.06c-.29,1.16-.58,2.64-.9,3.78l-1.16,4.15h4.33Z"/>
  <path d="M46.35,22.55v19.57h-4.44v-19.57h4.44Z"/>
  <path d="M50.19,22.82c1.42-.23,3.54-.41,5.89-.41,2.9,0,4.94.44,6.33,1.54,1.16.93,1.8,2.29,1.8,4.09,0,2.5-1.77,4.21-3.46,4.82v.09c1.36.55,2.12,1.86,2.61,3.66.61,2.21,1.22,4.76,1.6,5.52h-4.53c-.32-.55-.78-2.15-1.36-4.56-.52-2.44-1.36-3.11-3.17-3.14h-1.34v7.7h-4.38v-19.31ZM54.57,31.24h1.74c2.21,0,3.51-1.1,3.51-2.82,0-1.8-1.22-2.7-3.25-2.73-1.07,0-1.68.09-2,.14v5.4Z"/>
  <path d="M73.91,36.49c1.47.75,3.74,1.51,6.07,1.51,2.52,0,3.84-1.04,3.84-2.62s-1.15-2.37-4.06-3.41c-4.02-1.4-6.65-3.63-6.65-7.15,0-4.13,3.45-7.29,9.16-7.29,2.73,0,4.74.57,6.18,1.22l-1.22,4.42c-.97-.47-2.69-1.15-5.07-1.15s-3.52,1.08-3.52,2.34c0,1.54,1.37,2.23,4.49,3.41,4.28,1.58,6.29,3.81,6.29,7.22,0,4.06-3.13,7.51-9.77,7.51-2.77,0-5.5-.72-6.86-1.47l1.11-4.53Z"/>
  <path d="M92.67,22.55h4.38v8.65h.09c.44-.76.9-1.45,1.34-2.15l4.44-6.5h5.43l-6.48,8.33,6.82,11.24h-5.17l-4.79-8.45-1.68,2.06v6.39h-4.38v-19.57Z"/>
  <path d="M114.6,42.13v-8.01l-6.19-11.56h5.05l2,4.7c.61,1.42,1.02,2.47,1.51,3.75h.06c.44-1.22.9-2.35,1.48-3.75l1.97-4.7h4.97l-6.45,11.41v8.16h-4.41Z"/>
  <path d="M133.9,18.23c1.69-.29,4.06-.5,7.4-.5s5.78.65,7.4,1.94c1.55,1.22,2.59,3.23,2.59,5.61s-.79,4.38-2.23,5.75c-1.87,1.76-4.63,2.55-7.87,2.55-.72,0-1.37-.04-1.87-.11v8.66h-5.43v-23.89ZM139.33,29.23c.47.11,1.04.14,1.83.14,2.91,0,4.71-1.47,4.71-3.95,0-2.23-1.54-3.56-4.28-3.56-1.11,0-1.87.11-2.26.22v7.15Z"/>
  <path d="M158.88,37.1l-1.39,5.02h-4.59l5.98-19.57h5.81l6.07,19.57h-4.76l-1.51-5.02h-5.6ZM163.84,33.79l-1.22-4.15c-.35-1.16-.7-2.61-.99-3.78h-.06c-.29,1.16-.58,2.64-.9,3.78l-1.16,4.15h4.33Z"/>
  <path d="M173.37,22.82c1.42-.23,3.54-.41,5.89-.41,2.9,0,4.94.44,6.33,1.54,1.16.93,1.8,2.29,1.8,4.09,0,2.5-1.77,4.21-3.46,4.82v.09c1.36.55,2.12,1.86,2.61,3.66.61,2.21,1.22,4.76,1.6,5.52h-4.53c-.32-.55-.78-2.15-1.36-4.56-.52-2.44-1.36-3.11-3.17-3.14h-1.34v7.7h-4.38v-19.31ZM177.75,31.24h1.74c2.21,0,3.51-1.1,3.51-2.82,0-1.8-1.22-2.7-3.25-2.73-1.07,0-1.68.09-2,.14v5.4Z"/>
  <path d="M190.59,22.55h4.38v8.65h.09c.44-.76.9-1.45,1.34-2.15l4.44-6.5h5.43l-6.48,8.33,6.82,11.24h-5.17l-4.79-8.45-1.68,2.06v6.39h-4.38v-19.57Z"/>
</svg>