<?xml version="1.0" encoding="UTF-8"?>
<svg id="Layer_1" data-name="Layer 1" xmlns="http://www.w3.org/2000/svg" viewBox="0 0 211 60">
  <defs>
    <style>
      .cls-1 {
        fill: #fff;
      }
    </style>
  </defs>
  <path class="cls-1" d="M98.43,1.32l-7.2,4.62c-12.15,9.63-18.58,28.02-6.53,40.44l3.12,2.44h-8.7c-2.4-3.38-4.43-6.72-5.31-10.85-3.03-14.27,5.49-28.39,16.59-36.66h8.02Z"/>
  <path class="cls-1" d="M87.83,1.32c-2.15,2.21-4.4,4.11-6.39,6.51-9.69,11.63-13.92,28.12-3.94,41h-7.34c-1.87-3.51-3.22-7.27-3.78-11.24,2.43-7.37,2.34-19.16,6.11-25.66,2.29-3.95,5.42-7.44,8.68-10.61h6.66Z"/>
  <path class="cls-1" d="M104.96,45.3c-.21-.29.43-3.07.82-3.39.42-.35,2.5-.76,3.25-1.1,13.34-5.9,20.08-25.73,3.38-31.89l.56-3.27c.44-.67,3.88.77,4.59,1.13,2.41,1.19,5.03,3.81,6.37,6.13,7.5,12.98-5.8,29.96-18.97,32.39Z"/>
  <path class="cls-1" d="M85.39,18.96c.14.16.96-.32.8.4-.21.91-1.43,2.84-1.82,4.16-.73,2.46-.45,4.64-.9,6.66-.04.21-.5.17-.69.71-.65,1.84-.75,4.57-1.21,6.54l3.54.14c2.65,4.71,7.17,8.66,12.78,9.1l-.3,2.14c-2-.12-4.42.27-6.37.04s-5.36-3.24-6.66-4.75c-7.87-9.09-5.48-22.54,1.91-31.09l-1.08,5.97Z"/>
  <path class="cls-1" d="M106.05,40.41c-.14-.19.22-2.72.4-2.99.13-.19,3.49-1.6,4.19-2.06,5.47-3.58,9.57-11.15,6.05-17.4-1.28-2.27-3.06-3.28-5.18-4.62l.37-2.54c.74-1.07,4.59,1.61,5.32,2.31,1.69,1.61,3.23,4.49,3.5,6.82,1.1,9.39-6.06,17.73-14.65,20.47Z"/>
  <path class="cls-1" d="M129.69,12.45h-2.17c-.02.99-.2,1.99-.46,2.94-.08.28.05.67-.35.59-1.66-6.12-7-10.98-13.32-11.95l.39-2.45c3.76-.99,6.46.06,9.48,2.23,2.81,2.02,5.41,5.33,6.43,8.64Z"/>
  <path class="cls-1" d="M136.76,12.45h-5.3c-1.95-4.65-4.95-8.3-9.11-11.13h8.56c2.78,3.18,5.03,6.93,5.84,11.13Z"/>
  <path class="cls-1" d="M140.57,1.32c1.57,3.55,3.27,7.17,3.53,11.13h-5.98c-.23-2.89-1.79-5.42-3.04-7.96l-2.12-3.17h7.61Z"/>
  <path class="cls-1" d="M107.4,1.32l-.57,2.69c-4.62.45-8.96,2.69-12.61,5.46-.59.45-3.05,2.98-3.27,2.98h-3.94c-.12-.47.2-.54.41-.82,2.12-2.75,11.68-10.31,14.95-10.31h5.03Z"/>
  <path class="cls-1" d="M104.14,48.83l.29-2.15c7.82-1.13,14.14-6.07,18.73-12.24-.59,1.75-.58,4.09-1.16,5.77-.68,1.98-5.71,5.42-7.63,6.5-.55.31-4.15,2.13-4.4,2.13h-5.84Z"/>
  <path class="cls-1" d="M106.86,35.53c-.13-2.78,1.36-2.55,2.85-3.8,3.65-3.05,6.17-8.25,2.69-12.46-1.39-1.68-2.28-1.17-1.47-4.1,3.14.37,5.51,4.2,5.7,7.2.35,5.5-4.61,11.7-9.78,13.16Z"/>
  <path class="cls-1" d="M137.58,20.87c-.51,3.87-1.07,8.03-3.13,11.4h-4.76c1.64-3.63,2.69-7.42,2.99-11.4h4.89Z"/>
  <path class="cls-1" d="M91.5,37.43c.19.06,2.31,2.21,3.04,2.67,1.33.84,2.89,1.32,4.32,1.94l-.58,3.28c-3.58-.33-7.3-2.32-9.63-5.04-.63-.74-1.59-1.87-1.64-2.84h4.49Z"/>
  <path class="cls-1" d="M131.06,20.87c.1,1.83-.23,3.67-.68,5.43-.27,1.05-1.51,4.82-2.07,5.54-.68.87-2.71.26-3.78.43,1.57-3.62,3.05-7.37,2.99-11.4h3.54Z"/>
  <path class="cls-1" d="M84.84,30.37c0-2.97.59-6.22,1.77-8.95,1.28-2.96,1.43-2.54,4.75-2.45-.64,1.31-1.37,2.61-1.84,4-.16.46-.88,2.69-.88,2.92v4.48h-3.81Z"/>
  <path class="cls-1" d="M93.27,12.45c3.35-3.8,8.24-6.09,13.18-7.06l-.74,3.47c-1.7.43-3.43.89-5.02,1.64-.61.29-3.02,1.95-3.21,1.95h-4.21Z"/>
  <path class="cls-1" d="M136.22,32.27c1.47-3.67,2.37-7.49,2.87-11.41h3.11s-2.18,11.41-2.18,11.41h-3.81Z"/>
  <path class="cls-1" d="M90,26.43c.28-2.51,1.81-5.25,3.05-7.41l2.94.08c-2.35,3.29-3.84,7.18-2.99,11.26h-2.99c.1-1.26-.14-2.7,0-3.94Z"/>
  <path class="cls-1" d="M101.15,30.37l-2.13-.04c-2.29-4.09.41-8.63,4.03-10.81l-1.9,10.86Z"/>
  <path class="cls-1" d="M100.88,18.97l-2.29,2.73c-1.84,2.74-2.3,5.5-1.24,8.67l-2.73-.12c-.76-2.96-.16-5.83,1.33-8.48,1.31-2.33,2.03-3.25,4.94-2.8Z"/>
  <path class="cls-1" d="M111.11,19.87c3.32,3.46.54,9.71-3.44,11.31l2.45-11.94s.86.5.99.64Z"/>
  <polygon class="cls-1" points="78.86 1.32 72.06 9.74 73.69 1.32 78.86 1.32"/>
  <path class="cls-1" d="M146.82,1.32l-1.77,7.88c-.77-2.71-1.67-5.44-3.13-7.88h4.89Z"/>
  <polygon class="cls-1" points="113.66 48.83 121.13 43.67 120.18 48.83 113.66 48.83"/>
  <polygon class="cls-1" points="68.53 48.83 64.18 48.83 65.67 41.5 68.53 48.83"/>
  <path class="cls-1" d="M99.79,37.43c-.08.75,0,2.92-.95,3-1.12.09-3.81-1.62-4.68-2.38-.19-.17-.51.01-.35-.62h5.98Z"/>
  <path class="cls-1" d="M100.33,12.45l2.18-1.22c.97-.33,1.92-.8,2.99-.68l-.27,1.9h-4.89Z"/>
  <g>
    <path class="cls-1" d="M67.96,55.74h-2.28l-.43,2.29h2.57l-.13.66h-3.35l1.19-6.28h3.21l-.13.66h-2.42l-.38,2.01h2.28l-.13.65Z"/>
    <path class="cls-1" d="M73.44,52.08l-.99,5.19c-.09.47-.17.99-.2,1.43h-.71l.12-.89h-.02c-.41.64-.98,1-1.62,1-.88,0-1.35-.72-1.35-1.64,0-1.6,1.19-3.08,2.79-3.08.29,0,.61.07.8.16l.4-2.16h.77ZM72.15,54.89c-.16-.1-.42-.19-.75-.19-1.08,0-1.92,1.15-1.92,2.35,0,.54.19,1.11.85,1.11.6,0,1.31-.68,1.51-1.7l.31-1.58Z"/>
    <path class="cls-1" d="M77.94,54.18l-.61,3.2c-.09.5-.16.94-.21,1.31h-.7l.12-.85h-.02c-.4.59-1,.95-1.59.95s-1.18-.28-1.18-1.3c0-.21.03-.46.08-.76l.48-2.55h.77l-.48,2.52c-.06.25-.08.47-.08.66,0,.47.2.78.73.78.56,0,1.28-.65,1.46-1.65l.44-2.31h.77Z"/>
    <path class="cls-1" d="M81.54,58.52c-.23.11-.7.27-1.3.27-1.17,0-1.73-.78-1.73-1.74,0-1.54,1.14-2.95,2.76-2.95.42,0,.8.12.94.2l-.22.62c-.18-.08-.43-.17-.76-.17-1.17,0-1.91,1.16-1.91,2.22,0,.73.38,1.2,1.12,1.2.46,0,.81-.14,1.04-.25l.07.62Z"/>
    <path class="cls-1" d="M85.23,58.69c0-.27.05-.7.1-1.17h-.02c-.49.93-1.11,1.27-1.75,1.27-.79,0-1.3-.63-1.3-1.49,0-1.57,1.16-3.23,3.12-3.23.43,0,.9.07,1.21.18l-.46,2.35c-.15.78-.21,1.58-.2,2.09h-.72ZM85.74,54.76c-.11-.03-.28-.07-.54-.07-1.17,0-2.12,1.22-2.13,2.47,0,.5.18,1,.77,1,.64,0,1.41-.84,1.63-2.04l.26-1.36Z"/>
    <path class="cls-1" d="M89.13,52.97l-.23,1.21h1.08l-.12.61h-1.08l-.42,2.19c-.05.25-.08.48-.08.73,0,.27.13.43.43.43.13,0,.26,0,.36-.03l-.04.61c-.14.06-.37.08-.6.08-.69,0-.95-.42-.95-.88,0-.26.03-.52.09-.85l.45-2.28h-.65l.12-.61h.64l.2-1.02.8-.2Z"/>
    <path class="cls-1" d="M90.02,58.69l.87-4.51h.77l-.87,4.51h-.77ZM91.03,52.92c0-.3.23-.52.51-.52s.46.21.46.48c0,.31-.22.52-.52.52-.27,0-.45-.21-.45-.48Z"/>
    <path class="cls-1" d="M96.48,55.96c0,1.39-.99,2.83-2.5,2.83-1.13,0-1.76-.84-1.76-1.85,0-1.48,1.03-2.86,2.5-2.86,1.22,0,1.76.92,1.76,1.88ZM93.03,56.91c0,.74.4,1.27,1.06,1.27.91,0,1.6-1.17,1.6-2.23,0-.52-.24-1.26-1.05-1.26-.97,0-1.62,1.18-1.61,2.22Z"/>
    <path class="cls-1" d="M97.02,58.69l.61-3.2c.1-.5.16-.94.21-1.31h.69l-.11.89h.02c.4-.63,1.01-.99,1.67-.99.54,0,1.15.31,1.15,1.26,0,.2-.04.48-.08.73l-.5,2.63h-.77l.49-2.6c.04-.18.07-.39.07-.58,0-.46-.18-.79-.71-.79s-1.33.66-1.54,1.78l-.41,2.19h-.77Z"/>
    <path class="cls-1" d="M104.92,52.41h3.19l-.12.66h-2.41l-.41,2.12h2.23l-.13.66h-2.22l-.54,2.84h-.77l1.19-6.28Z"/>
    <path class="cls-1" d="M107.83,58.69l.87-4.51h.77l-.87,4.51h-.77ZM108.84,52.92c0-.3.23-.52.51-.52s.46.21.46.48c0,.31-.22.52-.52.52-.27,0-.45-.21-.45-.48Z"/>
    <path class="cls-1" d="M109.97,58.69l.55-2.91c.11-.59.19-1.18.23-1.6h.68c-.04.32-.07.63-.12.98h.03c.29-.62.77-1.08,1.38-1.08.07,0,.16,0,.21.02l-.15.76s-.12-.02-.21-.02c-.67,0-1.27.81-1.46,1.86l-.37,1.99h-.77Z"/>
    <path class="cls-1" d="M112.97,57.91c.21.13.61.28.97.28.52,0,.86-.34.86-.74,0-.35-.16-.57-.62-.83-.52-.29-.81-.69-.81-1.15,0-.79.68-1.4,1.63-1.4.41,0,.77.11.94.22l-.21.59c-.16-.09-.45-.21-.78-.21-.47,0-.8.29-.8.68,0,.33.21.53.62.76.5.29.85.68.85,1.18,0,.95-.77,1.48-1.72,1.48-.48,0-.91-.15-1.12-.31l.21-.57Z"/>
    <path class="cls-1" d="M118.43,52.97l-.23,1.21h1.08l-.12.61h-1.08l-.42,2.19c-.05.25-.08.48-.08.73,0,.27.13.43.43.43.13,0,.26,0,.36-.03l-.04.61c-.14.06-.37.08-.6.08-.69,0-.95-.42-.95-.88,0-.26.03-.52.09-.85l.45-2.28h-.65l.12-.61h.64l.2-1.02.8-.2Z"/>
  </g>
</svg>