<?xml version="1.0" encoding="UTF-8"?>
<svg id="Layer_1" data-name="Layer 1" xmlns="http://www.w3.org/2000/svg" viewBox="0 0 250 250">
  <defs>
    <style>
      .cls-1 {
        fill: #fff;
      }
    </style>
  </defs>
  <path class="cls-1" d="M103.62,53.19l-21.77,13.98c-36.77,29.14-56.21,84.76-19.76,122.34l9.45,7.4h-26.32c-7.27-10.22-13.41-20.32-16.07-32.82-9.16-43.18,16.59-85.88,50.19-110.9h24.26Z"/>
  <path class="cls-1" d="M71.55,53.19c-6.52,6.68-13.3,12.45-19.34,19.7-29.31,35.19-42.11,85.06-11.91,124.02h-22.2c-5.67-10.62-9.75-21.99-11.43-34,7.36-22.3,7.07-57.95,18.48-77.62,6.93-11.94,16.4-22.52,26.25-32.1h20.15Z"/>
  <path class="cls-1" d="M123.36,186.23c-.65-.88,1.31-9.28,2.47-10.25,1.26-1.05,7.57-2.31,9.84-3.31,40.37-17.85,60.75-77.82,10.22-96.46l1.7-9.91c1.33-2.03,11.74,2.34,13.9,3.41,7.3,3.61,15.21,11.52,19.27,18.54,22.68,39.26-17.53,90.62-57.4,97.98Z"/>
  <path class="cls-1" d="M64.17,106.55c.43.48,2.91-.98,2.41,1.21-.62,2.75-4.32,8.6-5.5,12.59-2.19,7.43-1.37,14.02-2.71,20.14-.14.62-1.5.5-2.07,2.15-1.95,5.58-2.27,13.83-3.67,19.77l10.7.41c8.03,14.26,21.7,26.19,38.65,27.52l-.91,6.48c-6.06-.38-13.36.82-19.26.11-5.94-.72-16.2-9.81-20.15-14.37-23.8-27.49-16.59-68.18,5.77-94.06l-3.26,18.05Z"/>
  <path class="cls-1" d="M126.65,171.45c-.42-.58.66-8.23,1.21-9.05.4-.58,10.57-4.83,12.69-6.22,16.54-10.83,28.95-33.72,18.3-52.63-3.88-6.88-9.26-9.94-15.67-13.97l1.11-7.68c2.22-3.24,13.87,4.88,16.08,6.99,5.12,4.87,9.76,13.6,10.58,20.64,3.32,28.42-18.34,53.64-44.31,61.92Z"/>
  <path class="cls-1" d="M198.19,86.86h-6.57c-.05,2.99-.62,6.03-1.4,8.89-.23.84.15,2.03-1.06,1.79-5.03-18.5-21.18-33.21-40.29-36.16l1.18-7.4c11.37-3.01,19.55.19,28.68,6.74,8.5,6.1,16.37,16.12,19.46,26.14Z"/>
  <path class="cls-1" d="M219.57,86.86h-16.04c-5.9-14.06-14.98-25.11-27.55-33.67h25.9c8.41,9.61,15.23,20.96,17.68,33.67Z"/>
  <path class="cls-1" d="M231.09,53.19c4.76,10.75,9.89,21.68,10.69,33.67h-18.09c-.7-8.74-5.43-16.4-9.21-24.07l-6.42-9.6h23.03Z"/>
  <path class="cls-1" d="M130.76,53.19l-1.71,8.15c-13.98,1.37-27.11,8.14-38.15,16.51-1.79,1.36-9.22,9.01-9.89,9.01h-11.92c-.36-1.43.59-1.64,1.23-2.47,6.4-8.31,35.32-31.2,45.24-31.2h15.21Z"/>
  <path class="cls-1" d="M120.89,196.91l.89-6.51c23.65-3.42,42.78-18.37,56.67-37.02-1.78,5.29-1.75,12.37-3.5,17.44-2.06,5.98-17.27,16.39-23.08,19.66-1.66.93-12.56,6.43-13.3,6.43h-17.68Z"/>
  <path class="cls-1" d="M129.12,156.66c-.38-8.4,4.11-7.71,8.63-11.49,11.03-9.23,18.65-24.97,8.15-37.7-4.2-5.09-6.91-3.54-4.44-12.4,9.49,1.13,16.68,12.7,17.25,21.78,1.05,16.64-13.94,35.41-29.59,39.81Z"/>
  <path class="cls-1" d="M222.04,112.32c-1.54,11.7-3.24,24.3-9.46,34.49h-14.39c4.96-10.97,8.13-22.44,9.05-34.49h14.8Z"/>
  <path class="cls-1" d="M82.65,162.42c.59.17,7,6.68,9.19,8.07,4.03,2.55,8.73,3.99,13.08,5.87l-1.76,9.92c-10.83-1-22.09-7.03-29.12-15.26-1.92-2.25-4.8-5.66-4.96-8.6h13.57Z"/>
  <path class="cls-1" d="M202.31,112.32c.31,5.54-.7,11.09-2.05,16.44-.8,3.19-4.56,14.58-6.26,16.75-2.07,2.64-8.21.79-11.43,1.31,4.76-10.95,9.22-22.31,9.04-34.49h10.7Z"/>
  <path class="cls-1" d="M62.5,141.06c.01-8.98,1.78-18.81,5.36-27.09,3.87-8.96,4.32-7.68,14.38-7.4-1.94,3.95-4.14,7.9-5.56,12.1-.47,1.4-2.67,8.13-2.67,8.84v13.55h-11.51Z"/>
  <path class="cls-1" d="M87.99,86.86c10.12-11.5,24.93-18.43,39.88-21.36l-2.24,10.5c-5.13,1.29-10.37,2.7-15.18,4.96-1.84.87-9.15,5.9-9.72,5.9h-12.75Z"/>
  <path class="cls-1" d="M217.93,146.81c4.44-11.09,7.15-22.66,8.69-34.51l9.4.02-6.58,34.49h-11.51Z"/>
  <path class="cls-1" d="M78.13,129.16c.85-7.58,5.46-15.88,9.21-22.41l8.89.24c-7.1,9.96-11.62,21.71-9.05,34.07h-9.05c.31-3.82-.42-8.17,0-11.91Z"/>
  <path class="cls-1" d="M111.83,141.06l-6.44-.13c-6.94-12.36,1.25-26.11,12.19-32.71l-5.76,32.84Z"/>
  <path class="cls-1" d="M111.02,106.58l-6.93,8.27c-5.57,8.29-6.95,16.64-3.76,26.22l-8.27-.35c-2.3-8.95-.47-17.65,4.03-25.65,3.96-7.04,6.13-9.82,14.94-8.48Z"/>
  <path class="cls-1" d="M141.98,109.32c10.05,10.46,1.64,29.37-10.41,34.2l7.41-36.13c.11-.14,2.61,1.52,3,1.92Z"/>
  <polygon class="cls-1" points="44.41 53.19 23.86 78.65 28.78 53.19 44.41 53.19"/>
  <path class="cls-1" d="M250,53.19l-5.35,23.83c-2.32-8.2-5.04-16.46-9.46-23.83h14.8Z"/>
  <polygon class="cls-1" points="149.67 196.91 172.28 181.3 169.41 196.91 149.67 196.91"/>
  <polygon class="cls-1" points="13.16 196.91 0 196.91 4.52 174.73 13.16 196.91"/>
  <path class="cls-1" d="M107.73,162.42c-.25,2.27,0,8.85-2.87,9.07-3.38.26-11.53-4.91-14.17-7.19-.59-.51-1.54.04-1.05-1.88h18.09Z"/>
  <path class="cls-1" d="M109.38,86.86l6.59-3.68c2.94-.99,5.82-2.41,9.03-2.06l-.82,5.74h-14.8Z"/>
</svg>