<?xml version="1.0" encoding="UTF-8"?>
<svg id="Layer_1" data-name="Layer 1" xmlns="http://www.w3.org/2000/svg" viewBox="0 0 250 250">
  <defs>
    <style>
      .cls-1 {
        fill: #fff;
      }
    </style>
  </defs>
  <path class="cls-1" d="M140.31,32.36c77.1-5.95,127.9,79.48,85.07,144.32-36.65,55.33-118.86,55.09-155.03-.48-38.43-59.01,0-138.37,70.08-143.85,0,0-.12,0-.12,0ZM141.5,44.86c-52.47,3.93-86.62,57.35-69.48,106.96,19.51,56.28,92.92,72.34,134.09,28.79,50.69-53.66,8.69-141.35-64.61-135.76h0Z"/>
  <path class="cls-1" d="M100.57,35.1l-13.21,8.45c-60.09,41.05-59.25,122.31.59,163.6l12.37,7.85c-48.54-12.37-78.17-60.09-67.82-109.34,7.14-33.91,34.15-62.94,68.18-70.56,0,0-.12,0-.12,0Z"/>
  <path class="cls-1" d="M76.18,35.1l-8.92,5.12c-34.86,21.3-53.18,54.61-48.78,96.14,4.4,41.52,24.63,60.2,55.09,77.34,1.31.71,1.31.83,0,.71-17.49-1.78-42.71-23.2-52.23-37.48C-14.49,123.62,14.19,49.85,76.18,35.1Z"/>
  <path class="cls-1" d="M131.15,94.47c6.78.59,15.59,4.16,18.2,10.83,3.81,9.64.59,20.11-9.04,24.51l16.66,25.82h-17.85l-12.73-22.01h-9.76v22.01h-15.47v-61.16c9.64.59,20.46-.83,29.98,0ZM117.23,122.43h13.33s2.62-1.43,2.97-1.78c2.74-2.26,3.57-6.78,2.26-9.99s-4.28-4.28-5.83-4.28h-12.73v16.06Z"/>
  <path class="cls-1" d="M163.03,195.49c3.69-2.97,7.97-5.24,11.54-8.33,38.55-32.01,38.67-90.43.95-123.15l-12.14-9.16c23.32,6.78,43.55,26.29,50.09,49.73,10.83,39.26-11.07,80.19-50.33,91.02h-.12v-.12Z"/>
  <path class="cls-1" d="M138.05,195.49l14.04-10.11c40.93-36.29,34.15-102.2-12.85-129.45-.12-.71.24-.71.83-.59,5.71.48,19.16,9.28,23.8,13.09,31.65,26.41,37.12,69.84,10.95,102.44-8.92,11.18-22.84,21.42-36.88,24.63h.12Z"/>
</svg>