<?xml version="1.0" encoding="UTF-8"?>
<svg id="Layer_1" data-name="Layer 1" xmlns="http://www.w3.org/2000/svg" viewBox="0 0 647.7 191.5">
  <path d="M130.6,17.9c64.8-5,107.5,66.8,71.5,121.3-30.8,46.5-99.9,46.3-130.3-.4-32.3-49.6,0-116.3,58.9-120.9,0,0-.1,0-.1,0ZM131.6,28.4c-44.1,3.3-72.8,48.2-58.4,89.9,16.4,47.3,78.1,60.8,112.7,24.2,42.6-45.1,7.3-118.8-54.3-114.1h0Z"/>
  <path d="M97.2,20.2l-11.1,7.1c-50.5,34.5-49.8,102.8.5,137.5l10.4,6.6c-40.8-10.4-65.7-50.5-57-91.9,6-28.5,28.7-52.9,57.3-59.3,0,0-.1,0-.1,0Z"/>
  <path d="M76.7,20.2l-7.5,4.3c-29.3,17.9-44.7,45.9-41,80.8,3.7,34.9,20.7,50.6,46.3,65,1.1.6,1.1.7,0,.6-14.7-1.5-35.9-19.5-43.9-31.5C.5,94.6,24.6,32.6,76.7,20.2Z"/>
  <path d="M266.3,50.2c1.8,0,5,.7,6.8,1.1,11.7,3,11.8,17.7,1.9,23.1l2.2,2.3,8.8,14.9h-11.2l-8.7-14.3c-1.3-1.3-3.3-.6-5-.7v14.5h-10v-40.9h15.2ZM261.1,69.1h7.2c.6,0,2.8-2.1,3.1-2.9,3.6-7.4-5.1-8.4-10.4-8.1v11h.1Z"/>
  <polygon points="260.8 102.1 267.8 133 274.1 102.1 286.1 102.1 275.5 141.4 261.3 141.5 251.1 102.1 260.8 102.1"/>
  <path d="M476.9,65.6h-10c-.4-3.4-1.8-6.9-5.5-7.8-10.3-2.4-11.5,13.7-8.9,20.4s14.3,6.6,14.4-2.6h10c-.2,18-25.9,22.1-33.2,6.4-5.5-11.8-2-29.9,12.9-31.9,11-1.4,19.2,4.1,20.2,15.5h.1Z"/>
  <path d="M609.8,48.2v17.5c4.4-5.7,15.9-6.5,19.2.5.2.4,1.2,3.6,1.2,3.8v21.2h-9.2l-.7-.7v-17c0-.5-1.4-3.2-2-3.5-3.2-1.5-8.5.6-8.5,4.5v16.2h-9.5v-42.4h9.5v-.1Z"/>
  <path d="M488.4,48.2v17.5c4.6-5.4,16.1-6.2,19.4.9,3.3,7.1,1.1,3.2,1.1,3.4v21.2h-9.5v-14.7c0-.4-.7-3.5-.9-4.1-1.6-4.9-10.1-3.1-10.1,2.6v15.7h-9.5v-42.4h9.5v-.1Z"/>
  <path d="M458.4,141.5h-9.2l-2-3c-3.8,3.9-12.3,4.8-16.9,1.9s-4.9-7.4-2.8-11.1c3.7-6.2,18-4.9,19.2-6.8,2-3.3-11-5.2-9.8.5h-10c0-14.4,27.6-15,29.8-1.5s-1.4,14,1.7,20h0ZM446.9,129c-2.1,1.3-11.9.5-10.5,4.7s11.5.4,10.5-4.7Z"/>
  <path d="M349.5,90.6h-10l-1.2-2.5c-7,5.7-22.6,4.6-20.7-7.2,1.4-8.8,18.4-6.9,19.7-8.7,2.2-3-5.7-4.8-8.3-2.8s-1.4,2.7-1.7,2.7h-9.2c-.5-12.9,22.5-14.2,28.2-5.5,5.7,8.7-1.1,18.1,3.3,23.9h0l-.1.1ZM337.5,78.6c-2.4.7-7.8.5-9.7,1.9s-.2,3.2,1.4,3.5c4,.8,8.3-.9,8.2-5.5h.1v.1Z"/>
  <path d="M316,79.1h-22.5c.2,5.3,8.2,6.9,11.5,3.7s.4-1.3.5-1.3h10c-.9,7.9-11.5,10.6-18.2,10-20.2-2-18.4-33.1,5.4-30.3,9.5,1.1,13.8,8.8,13.4,17.8h0l-.1.1ZM306,72.6c-1.1-5.7-11-5.8-12,0h12Z"/>
  <path d="M293.1,130c.2,5.2,7.4,6.3,11.1,4s.9-1.5,1.1-1.5h9.7c-4.2,13-26.4,13.4-31.2.5-8.2-22,26.7-29.9,31.1-9.1.2,1,1,6.1-.1,6.1h-21.7ZM305.5,123.5c-1.7-6.1-10.8-6.2-12.5,0h12.5Z"/>
  <path d="M407.7,61.6l5.5,20.5,4.7-20.5h10c-3.4,10.2-5.9,21.9-10,31.7-3.7,9-9.4,11.4-19,9.7v-7c3.9.4,8.1,0,8.8-4.7l-9.8-29.7s9.8,0,9.8,0Z"/>
  <path d="M338,142v-18.2c0-2.8-6.4-4.8-9-1.5s-1.5,2.7-1.5,3v16.7h-9.2l-.7-.7v-28.7h10v4c4.4-5,14.8-7.1,18.6-.4.5.9,1.9,5.3,1.9,6.1v19l-.7.7h-9.4,0Z"/>
  <path d="M382.5,112.5v18.2c0,.1,1,1.9,1.2,2.1,2,2.2,5.8,1.3,7.3-1.2s1.6-4.3,1.6-4.9v-14.2h9.5v28.9h-9.5v-3.5c-4.2,4.7-14.1,6.5-17.9.7s-2.1-4.9-2.1-5.9v-20.2h10-.1Z"/>
  <path d="M521.4,61.6v18.2c0,3.4,5.6,4.5,8,1.5s2-3.6,2-4v-15.7h9.5v28.9h-9.5v-3.5c-3.7,4.7-14.5,6.2-17.9.7s-2.1-5.9-2.1-6.9v-19.2s10,0,10,0Z"/>
  <path d="M597.3,73.6h-9.5c-2.1-7.7-12-5.2-12,2.7s9.4,11,12,3.2h9.5c-.3,13.5-20.2,15.5-27.7,7-6-6.7-4.7-18.6,3.2-23.2s24.7-1.7,24.5,10.2h0v.1Z"/>
  <path d="M363.5,103.1v9.5h7v7.5h-7v13.2c0,2.4,4,1.7,5.5,1.2v7.5c-4.1.4-10.6.8-13.7-2.5s-1.8-2.8-1.8-3.2v-16.2h-4v-7.5h4v-9.5s10,0,10,0Z"/>
  <path d="M389.5,52.2v9.5h5.9l2.1,7.5h-8v12.2c0,2.9,3.4,3.1,5.5,2.2v7.5c-4.7.6-13.1.6-14.8-5-1.5-5.1-.3-11.7-.7-17h-3.5v-7.5h3.5v-8.7l.7-.7h9.3Z"/>
  <rect x="351" y="48.2" width="10" height="42.4"/>
  <path d="M553.9,61.6v3.5c3.2-3.3,7.4-5.1,11.9-3.4l-.9,8.4c-.4.4-6.2-1.9-9.2,2s-1.8,3.4-1.8,3.7v14.5l-.7.7h-9.2v-29.4h10-.1Z"/>
  <path d="M414.5,112.5v3.5c.8,0,.7-1.1,1.5-1.7,2.3-1.8,6.9-3.1,9.7-2.2s-.8,7.1-.2,8.9c-3.5-.6-6.7-1-9.2,2s-1.8,2.8-1.8,3.2v15.2h-10v-28.9s10,0,10,0Z"/>
  <rect x="363.5" y="61.6" width="10" height="29.4"/>
  <path d="M364.7,57.5c-6-6.1,5-13.6,8.4-6.7,3.1,6.2-4.8,10.4-8.4,6.7Z"/>
  <path d="M122.9,70.1c5.7.5,13.1,3.5,15.3,9.1,3.2,8.1.5,16.9-7.6,20.6l14,21.7h-15l-10.7-18.5h-8.2v18.5h-13v-51.4c8.1.5,17.2-.7,25.2,0ZM111.2,93.6h11.2s2.2-1.2,2.5-1.5c2.3-1.9,3-5.7,1.9-8.4s-3.6-3.6-4.9-3.6h-10.7v13.5Z"/>
  <path d="M149.7,155c3.1-2.5,6.7-4.4,9.7-7,32.4-26.9,32.5-76,.8-103.5l-10.2-7.7c19.6,5.7,36.6,22.1,42.1,41.8,9.1,33-9.3,67.4-42.3,76.5h-.1v-.1Z"/>
  <path d="M128.7,155l11.8-8.5c34.4-30.5,28.7-85.9-10.8-108.8-.1-.6.2-.6.7-.5,4.8.4,16.1,7.8,20,11,26.6,22.2,31.2,58.7,9.2,86.1-7.5,9.4-19.2,18-31,20.7h.1Z"/>
</svg>