<?xml version="1.0" encoding="UTF-8"?>
<svg id="Layer_1" data-name="Layer 1" xmlns="http://www.w3.org/2000/svg" viewBox="0 0 211 60">
  <defs>
    <style>
      .cls-1 {
        fill: #fff;
      }
    </style>
  </defs>
  <path class="cls-1" d="M42.48,4.59c21.14-1.63,35.06,21.79,23.32,39.57-10.05,15.17-32.59,15.1-42.5-.13-10.54-16.18,0-37.94,19.21-39.44,0,0-.03,0-.03,0ZM42.8,8.01c-14.38,1.08-23.75,15.72-19.05,29.32,5.35,15.43,25.48,19.83,36.76,7.89,13.9-14.71,2.38-38.75-17.71-37.22h0Z"/>
  <path class="cls-1" d="M31.58,5.34l-3.62,2.32c-16.47,11.25-16.24,33.53.16,44.85l3.39,2.15c-13.31-3.39-21.43-16.47-18.59-29.98,1.96-9.3,9.36-17.26,18.69-19.34,0,0-.03,0-.03,0Z"/>
  <path class="cls-1" d="M24.89,5.34l-2.45,1.4c-9.56,5.84-14.58,14.97-13.37,26.36,1.21,11.38,6.75,16.5,15.1,21.2.36.2.36.23,0,.2-4.79-.49-11.71-6.36-14.32-10.27C.04,29.61,7.9,9.38,24.89,5.34Z"/>
  <path class="cls-1" d="M86.74,15.13c.59,0,1.63.23,2.22.36,3.82.98,3.85,5.77.62,7.53l.72.75,2.87,4.86h-3.65l-2.84-4.66c-.42-.42-1.08-.2-1.63-.23v4.73h-3.26v-13.34h4.96ZM85.04,21.29h2.35c.2,0,.91-.68,1.01-.95,1.17-2.41-1.66-2.74-3.39-2.64v3.59h.03Z"/>
  <polygon class="cls-1" points="84.94 32.05 87.23 42.13 89.28 32.05 93.2 32.05 89.74 44.87 85.11 44.91 81.78 32.05 84.94 32.05"/>
  <path class="cls-1" d="M155.43,20.15h-3.26c-.13-1.11-.59-2.25-1.79-2.54-3.36-.78-3.75,4.47-2.9,6.65s4.66,2.15,4.7-.85h3.26c-.07,5.87-8.45,7.21-10.83,2.09-1.79-3.85-.65-9.75,4.21-10.41,3.59-.46,6.26,1.34,6.59,5.06h.03Z"/>
  <path class="cls-1" d="M198.78,14.47v5.71c1.44-1.86,5.19-2.12,6.26.16.07.13.39,1.17.39,1.24v6.92h-3l-.23-.23v-5.55c0-.16-.46-1.04-.65-1.14-1.04-.49-2.77.2-2.77,1.47v5.28h-3.1v-13.83h3.1v-.03Z"/>
  <path class="cls-1" d="M159.18,14.47v5.71c1.5-1.76,5.25-2.02,6.33.29,1.08,2.32.36,1.04.36,1.11v6.92h-3.1v-4.79c0-.13-.23-1.14-.29-1.34-.52-1.6-3.29-1.01-3.29.85v5.12h-3.1v-13.83h3.1v-.03Z"/>
  <path class="cls-1" d="M149.4,44.91h-3l-.65-.98c-1.24,1.27-4.01,1.57-5.51.62s-1.6-2.41-.91-3.62c1.21-2.02,5.87-1.6,6.26-2.22.65-1.08-3.59-1.7-3.2.16h-3.26c0-4.7,9-4.89,9.72-.49s-.46,4.57.55,6.52h0ZM145.65,40.83c-.68.42-3.88.16-3.42,1.53s3.75.13,3.42-1.53Z"/>
  <path class="cls-1" d="M113.88,28.3h-3.26l-.39-.82c-2.28,1.86-7.37,1.5-6.75-2.35.46-2.87,6-2.25,6.43-2.84.72-.98-1.86-1.57-2.71-.91s-.46.88-.55.88h-3c-.16-4.21,7.34-4.63,9.2-1.79,1.86,2.84-.36,5.9,1.08,7.8h0l-.03.03ZM109.96,24.39c-.78.23-2.54.16-3.16.62s-.07,1.04.46,1.14c1.3.26,2.71-.29,2.67-1.79h.03v.03Z"/>
  <path class="cls-1" d="M102.95,24.55h-7.34c.07,1.73,2.67,2.25,3.75,1.21s.13-.42.16-.42h3.26c-.29,2.58-3.75,3.46-5.94,3.26-6.59-.65-6-10.8,1.76-9.88,3.1.36,4.5,2.87,4.37,5.81h0l-.03.03ZM99.69,22.43c-.36-1.86-3.59-1.89-3.91,0h3.91Z"/>
  <path class="cls-1" d="M95.48,41.16c.07,1.7,2.41,2.05,3.62,1.3,1.21-.75.29-.49.36-.49h3.16c-1.37,4.24-8.61,4.37-10.18.16-2.67-7.18,8.71-9.75,10.14-2.97.07.33.33,1.99-.03,1.99h-7.08ZM99.52,39.03c-.55-1.99-3.52-2.02-4.08,0h4.08Z"/>
  <path class="cls-1" d="M132.86,18.84l1.79,6.69,1.53-6.69h3.26c-1.11,3.33-1.92,7.14-3.26,10.34-1.21,2.94-3.07,3.72-6.2,3.16v-2.28c1.27.13,2.64,0,2.87-1.53l-3.2-9.69s3.2,0,3.2,0Z"/>
  <path class="cls-1" d="M110.13,45.07v-5.94c0-.91-2.09-1.57-2.94-.49s-.49.88-.49.98v5.45h-3l-.23-.23v-9.36h3.26v1.3c1.44-1.63,4.83-2.32,6.07-.13.16.29.62,1.73.62,1.99v6.2l-.23.23h-3.07,0Z"/>
  <path class="cls-1" d="M124.64,35.45v5.94s.33.62.39.68c.65.72,1.89.42,2.38-.39s.52-1.4.52-1.6v-4.63h3.1v9.43h-3.1v-1.14c-1.37,1.53-4.6,2.12-5.84.23-1.24-1.89-.68-1.6-.68-1.92v-6.59h3.26-.03Z"/>
  <path class="cls-1" d="M169.95,18.84v5.94c0,1.11,1.83,1.47,2.61.49s.65-1.17.65-1.3v-5.12h3.1v9.43h-3.1v-1.14c-1.21,1.53-4.73,2.02-5.84.23s-.68-1.92-.68-2.25v-6.26s3.26,0,3.26,0Z"/>
  <path class="cls-1" d="M194.71,22.76h-3.1c-.68-2.51-3.91-1.7-3.91.88s3.07,3.59,3.91,1.04h3.1c-.1,4.4-6.59,5.06-9.04,2.28-1.96-2.19-1.53-6.07,1.04-7.57s8.06-.55,7.99,3.33h0v.03Z"/>
  <path class="cls-1" d="M118.44,32.38v3.1h2.28v2.45h-2.28v4.31c0,.78,1.3.55,1.79.39v2.45c-1.34.13-3.46.26-4.47-.82s-.59-.91-.59-1.04v-5.28h-1.3v-2.45h1.3v-3.1s3.26,0,3.26,0Z"/>
  <path class="cls-1" d="M126.92,15.78v3.1h1.92l.68,2.45h-2.61v3.98c0,.95,1.11,1.01,1.79.72v2.45c-1.53.2-4.27.2-4.83-1.63-.49-1.66-.1-3.82-.23-5.55h-1.14v-2.45h1.14v-2.84l.23-.23h3.03Z"/>
  <rect class="cls-1" x="114.37" y="14.47" width="3.26" height="13.83"/>
  <path class="cls-1" d="M180.55,18.84v1.14c1.04-1.08,2.41-1.66,3.88-1.11l-.29,2.74c-.13.13-2.02-.62-3,.65s-.59,1.11-.59,1.21v4.73l-.23.23h-3v-9.59h3.26-.03Z"/>
  <path class="cls-1" d="M135.08,35.45v1.14c.26,0,.23-.36.49-.55.75-.59,2.25-1.01,3.16-.72s-.26,2.32-.07,2.9c-1.14-.2-2.19-.33-3,.65s-.59.91-.59,1.04v4.96h-3.26v-9.43s3.26,0,3.26,0Z"/>
  <rect class="cls-1" x="118.44" y="18.84" width="3.26" height="9.59"/>
  <path class="cls-1" d="M118.83,17.51c-1.96-1.99,1.63-4.44,2.74-2.19,1.01,2.02-1.57,3.39-2.74,2.19Z"/>
  <path class="cls-1" d="M39.96,21.62c1.86.16,4.27,1.14,4.99,2.97,1.04,2.64.16,5.51-2.48,6.72l4.57,7.08h-4.89l-3.49-6.03h-2.67v6.03h-4.24v-16.77c2.64.16,5.61-.23,8.22,0ZM36.15,29.28h3.65s.72-.39.82-.49c.75-.62.98-1.86.62-2.74s-1.17-1.17-1.6-1.17h-3.49v4.4Z"/>
  <path class="cls-1" d="M48.71,49.31c1.01-.82,2.19-1.44,3.16-2.28,10.57-8.77,10.6-24.79.26-33.76l-3.33-2.51c6.39,1.86,11.94,7.21,13.73,13.63,2.97,10.76-3.03,21.98-13.8,24.95h-.03v-.03Z"/>
  <path class="cls-1" d="M41.86,49.31l3.85-2.77c11.22-9.95,9.36-28.02-3.52-35.49-.03-.2.07-.2.23-.16,1.57.13,5.25,2.54,6.52,3.59,8.68,7.24,10.18,19.15,3,28.08-2.45,3.07-6.26,5.87-10.11,6.75h.03Z"/>
</svg>