<?xml version="1.0" encoding="UTF-8"?>
<svg id="Layer_1" data-name="Layer 1" xmlns="http://www.w3.org/2000/svg" viewBox="0 0 211 60">
  <defs>
    <style>
      .cls-1 {
        fill: #fff;
      }
    </style>
  </defs>
  <g>
    <path class="cls-1" d="M24.44,17.98l2.98,16.32.53.33,3.52-16.65,5.99.14,3.66,16.51,3.34-16.66h5.97l-6.63,23.93c-2.71.81-5.45.24-6.55-2.51l-2.62-12.93c-.93-.08-.57-.02-.69.51-1.17,4.95-2.28,9.91-3.68,14.8-3.54,1.11-5.55.45-6.76-2.99l-5.01-20.81h5.97Z"/>
    <path class="cls-1" d="M81.66,23.76l.17,1.7c2.54-3.14,7.82-2.74,9.84.68l.53-.16c3.44-4.18,9.95-3.38,11.48,2.13.68,2.45.79,10.22.46,12.84-.05.36.01.78-.35,1.02l-5.14-.17c-.76-2.78.85-11.39-1.03-13.27-1.46-1.46-4.74.16-4.74,1.52v12.07h-5.09c-.35-.21-.45-.47-.53-.85-.56-2.97.8-9.56-.26-11.98-.76-1.73-2.98-1.76-4.28-.58-.21.19-1.07,1.58-1.07,1.68v11.73h-5.27v-18.36h5.27Z"/>
    <path class="cls-1" d="M117.11,40.42c-4.36,3.74-12.07,2.33-11.59-4.24.35-4.86,6.65-6.64,10.89-6.3-1.18-4.42-5.71-1.97-8.76-1.37l-.68-3.69c4.15-1.73,11.46-2.7,13.96,1.89,2.27,4.19.36,10.41,1.37,14.92-.24,1.21-5.32.74-5.18-1.21ZM116.42,33.62c-2.89-1.21-7.76,3.05-4.21,4.58,3.15,1.36,4.88-1.93,4.21-4.58Z"/>
    <path class="cls-1" d="M60.24,40.42c-5.29,4.59-14.07.92-10.94-6.36,1.45-3.38,6.84-4.38,10.25-4.18-1.23-4.51-5.64-2.03-8.77-1.36l-.68-3.72c3.9-1.53,10.85-2.69,13.55,1.29,2.93,4.32.72,10.73,1.79,15.53-1.47,1.32-4.66.81-5.19-1.21ZM59.55,33.62c-1.86-.08-4.89-.05-5.25,2.24-.25,1.59.14,2.47,1.92,2.54,3.21.13,3.62-2.23,3.33-4.78Z"/>
    <path class="cls-1" d="M142.75,17.98v5.44h4.21v5.1h-4.21v7.31c0,2.37,2.41,2.4,4.21,1.87-.17.98.4,3.72-.34,4.26-1.62,1.19-6.54.43-7.89-1.21-.31-.38-1.24-2.52-1.24-2.88v-19.89h5.27Z"/>
    <path class="cls-1" d="M129.76,23.76v2.38c.58-.19.63-.87,1.23-1.36,1.36-1.1,2.69-1.68,4.52-1.31,1.12.36.36,4.05.58,5.05-1.07,0-2.11-.11-3.17.16-4.79,1.2-1.02,10.24-2.97,13.44h-5.09v-18.36h4.92Z"/>
    <rect class="cls-1" x="67.97" y="17.98" width="5.27" height="24.13"/>
    <path class="cls-1" d="M167.92,24.54c1.01,1.17-.35,3.51-2.08,3.24-.74-.12-9.82-4.24-10.29-4.68-1.69-1.61.31-5.8,3.02-4.98l9.36,6.42Z"/>
    <path class="cls-1" d="M189.01,18.04c2.12-.52,4.58,3.07,2.9,4.88-1.67,1.79-7.89,3.18-10.11,4.85-1.97.4-3.06-1.67-2.36-3.33,2.38-.97,7.54-5.9,9.57-6.4Z"/>
    <path class="cls-1" d="M175.32,23c-.63.6-2.99.61-3.43-.17-.17-.3-.22-.93-.3-1.32-.67-3.26-.36-7.05-.92-10.37.63-1.8,4.41-2.19,5.47-.84.68.87-.18,12.08-.82,12.7Z"/>
    <path class="cls-1" d="M175.32,37.1c.37.36.69,3.65.78,4.51.21,1.83.66,5.86.35,7.48-.37,1.97-5.43,1.94-5.86-.39.7-3.39.4-7.1.97-10.46.32-1.88,2.75-2.1,3.76-1.13Z"/>
    <path class="cls-1" d="M166.1,32.04c1.2,0,2.13,1.63,1.93,2.75-.26,1.49-7.67,5.43-9.15,6.8-3.1,1.11-4.67-2.43-3.5-4.75l10.71-4.8Z"/>
    <path class="cls-1" d="M180.57,32.32c.52-.14,1.02-.1,1.51.1l9.81,4.44c1.93,1.62-.87,6.14-3.48,4.73-1.3-1.3-8.71-5.37-9.08-6.51-.33-1.01.12-2.45,1.25-2.77Z"/>
  </g>
  <path class="cls-1" d="M151.48,41.62c.08.03.77,1.07,1.1,1.15.05,1.68-1.24,2.25-2.78,1.66-.68-.65-.85-1.51-.37-2.32.34-.5,1.49-.7,2.05-.49Z"/>
</svg>