<?xml version="1.0" encoding="UTF-8"?>
<svg id="Layer_1" data-name="Layer 1" xmlns="http://www.w3.org/2000/svg" viewBox="0 0 250 250">
  <path d="M84.72,97.28c5.11,5.92-1.76,17.83-10.58,16.46-3.75-.59-49.89-21.52-52.27-23.78-8.6-8.19,1.55-29.45,15.32-25.28l47.53,32.61Z"/>
  <path d="M191.8,64.28c10.77-2.62,23.28,15.6,14.73,24.77-8.47,9.07-40.07,16.16-51.35,24.63-9.98,2.05-15.54-8.5-11.96-16.9,12.09-4.91,38.29-29.98,48.59-32.49Z"/>
  <path d="M122.28,89.45c-3.18,3.06-15.18,3.11-17.41-.87-.85-1.52-1.13-4.72-1.54-6.68-3.39-16.53-1.81-35.82-4.68-52.67,3.22-9.15,22.39-11.1,27.78-4.25,3.47,4.41-.9,61.35-4.15,64.47Z"/>
  <path d="M122.28,161.04c1.9,1.83,3.48,18.53,3.98,22.9,1.06,9.27,3.35,29.73,1.79,37.97-1.89,9.99-27.55,9.86-29.76-1.98,3.58-17.21,2.05-36.06,4.91-53.14,1.6-9.55,13.94-10.69,19.07-5.75Z"/>
  <path d="M75.47,135.35c6.08.03,10.81,8.25,9.81,13.97-1.33,7.56-38.93,27.58-46.44,34.54-15.73,5.65-23.72-12.33-17.77-24.12l54.41-24.39Z"/>
  <path d="M148.96,136.77c2.63-.73,5.16-.51,7.66.49l49.81,22.56c9.81,8.21-4.43,31.18-17.69,24.04-6.6-6.61-44.21-27.26-46.11-33.05-1.67-5.1.62-12.46,6.33-14.04Z"/>
  <path d="M225.68,173.14c.38.15,3.91,5.45,5.61,5.85.27,8.53-6.3,11.45-14.12,8.41-3.48-3.28-4.32-7.65-1.9-11.78,1.74-2.55,7.57-3.56,10.41-2.47Z"/>
</svg>